SplineFontDB: 3.2
FontName: Kende-font
FullName: Kende
FamilyName: Kende
Weight: Regular
Copyright: Copyright (c) 2021, Viktor Kovacs
Version: 001.000
ItalicAngle: 0
UnderlinePosition: -306
UnderlineWidth: 102
Ascent: 1638
Descent: 410
InvalidEm: 0
sfntRevision: 0x00010000
LayerCount: 2
Layer: 0 1 "Back" 1
Layer: 1 1 "Fore" 0
XUID: [1021 591 -814056728 13046789]
FSType: 0
OS2Version: 4
OS2_WeightWidthSlopeOnly: 0
OS2_UseTypoMetrics: 1
CreationTime: 1545818743
ModificationTime: 1633447392
PfmFamily: 33
TTFWeight: 400
TTFWidth: 5
LineGap: 184
VLineGap: 0
Panose: 2 0 5 3 0 0 0 0 0 0
OS2TypoAscent: 1638
OS2TypoAOffset: 0
OS2TypoDescent: -410
OS2TypoDOffset: 0
OS2TypoLinegap: 184
OS2WinAscent: 1640
OS2WinAOffset: 0
OS2WinDescent: 163
OS2WinDOffset: 0
HheadAscent: 1640
HheadAOffset: 0
HheadDescent: -163
HheadDOffset: 0
OS2SubXSize: 1331
OS2SubYSize: 1433
OS2SubXOff: 0
OS2SubYOff: 286
OS2SupXSize: 1331
OS2SupYSize: 1433
OS2SupXOff: 0
OS2SupYOff: 983
OS2StrikeYSize: 102
OS2StrikeYPos: 530
OS2Vendor: 'knde'
OS2CodePages: 00000001.00000000
OS2UnicodeRanges: 80000001.02000000.00000000.00000000
Lookup: 1 0 0 "'rtla' Right to Left Alternates lookup 0" { "'rtla' Right to Left Alternates lookup 0 subtable"  } ['rtla' () ]
Lookup: 4 1 1 "'liga'" { "'liga'-1"  } ['liga' ('DFLT' <'dflt' > 'hung' <'dflt' > ) ]
MarkAttachClasses: 1
DEI: 91125
ShortTable: cvt  2
  68
  1297
EndShort
ShortTable: maxp 16
  1
  0
  122
  148
  5
  0
  0
  2
  0
  1
  1
  0
  64
  46
  0
  0
EndShort

StartChar: .notdef
Encoding: 125 -1 0
Width: 748
Flags: W
LayerCount: 2
Fore
SplineSet
68 0 m 1,0,-1
 68 1365 l 1,1,-1
 612 1365 l 1,2,-1
 612 0 l 1,3,-1
 68 0 l 1,0,-1
136 68 m 1,4,-1
 544 68 l 1,5,-1
 544 1297 l 1,6,-1
 136 1297 l 1,7,-1
 136 68 l 1,4,-1
EndSplineSet
Validated: 1
EndChar

StartChar: exclam
Encoding: 1 33 2
Width: 255
Flags: W
LayerCount: 2
Fore
SplineSet
32 395 m 1,0,-1
 32 1409 l 1,1,-1
 223 1409 l 1,2,-1
 223 393 l 1,3,-1
 32 395 l 1,0,-1
223 185 m 1,4,-1
 223 0 l 1,5,-1
 32 0 l 1,6,-1
 32 183 l 1,7,-1
 223 185 l 1,4,-1
EndSplineSet
Validated: 1
EndChar

StartChar: quotedbl
Encoding: 2 34 3
Width: 617
Flags: W
LayerCount: 2
Fore
SplineSet
563 966 m 1,0,-1
 421 966 l 1,1,-1
 401 1409 l 1,2,-1
 585 1409 l 1,3,-1
 563 966 l 1,0,-1
194 966 m 1,4,-1
 53 966 l 1,5,-1
 32 1409 l 1,6,-1
 216 1409 l 1,7,-1
 194 966 l 1,4,-1
EndSplineSet
Validated: 1
EndChar

StartChar: hyphen
Encoding: 3 45 4
Width: 564
Flags: W
LayerCount: 2
Fore
SplineSet
32 464 m 1,0,-1
 32 624 l 1,1,-1
 532 624 l 1,2,-1
 532 464 l 1,3,-1
 32 464 l 1,0,-1
EndSplineSet
Validated: 1
EndChar

StartChar: period
Encoding: 4 46 5
Width: 255
Flags: W
LayerCount: 2
Fore
SplineSet
223 185 m 1,0,-1
 223 0 l 1,1,-1
 32 0 l 1,2,-1
 32 183 l 1,3,-1
 223 185 l 1,0,-1
EndSplineSet
Validated: 1
EndChar

StartChar: colon
Encoding: 5 58 6
Width: 254
Flags: W
LayerCount: 2
Fore
SplineSet
222 995 m 1,0,-1
 222 810 l 1,1,-1
 32 810 l 1,2,-1
 32 993 l 1,3,-1
 222 995 l 1,0,-1
222 185 m 1,4,-1
 222 0 l 1,5,-1
 32 0 l 1,6,-1
 32 183 l 1,7,-1
 222 185 l 1,4,-1
EndSplineSet
Validated: 1
EndChar

StartChar: uni201F
Encoding: 10 8223 7
Width: 596
Flags: W
LayerCount: 2
Fore
SplineSet
372 1455 m 1,0,-1
 372 1638 l 1,1,-1
 564 1640 l 1,2,-1
 564 1455 l 1,3,-1
 468 1455 l 1,4,-1
 498 1371 l 1,5,-1
 562 1292 l 1,6,-1
 468 1292 l 1,7,-1
 404 1371 l 1,8,-1
 372 1455 l 1,0,-1
32 1454 m 1,9,-1
 32 1637 l 1,10,-1
 224 1639 l 1,11,-1
 224 1454 l 1,12,-1
 128 1454 l 1,13,-1
 158 1370 l 1,14,-1
 222 1291 l 1,15,-1
 128 1291 l 1,16,-1
 64 1370 l 1,17,-1
 32 1454 l 1,9,-1
EndSplineSet
Validated: 1
EndChar

StartChar: uni204F
Encoding: 13 8271 8
Width: 256
Flags: W
LayerCount: 2
Fore
SplineSet
32 0 m 1,0,-1
 32 183 l 1,1,-1
 224 185 l 1,2,-1
 224 0 l 1,3,-1
 128 0 l 1,4,-1
 158 -84 l 1,5,-1
 222 -163 l 1,6,-1
 128 -163 l 1,7,-1
 64 -84 l 1,8,-1
 32 0 l 1,0,-1
224 995 m 1,9,-1
 224 810 l 1,10,-1
 32 810 l 1,11,-1
 32 993 l 1,12,-1
 224 995 l 1,9,-1
EndSplineSet
Validated: 1
EndChar

StartChar: uni2E2E
Encoding: 14 11822 9
Width: 1043
Flags: W
LayerCount: 2
Fore
SplineSet
652 185 m 1,0,-1
 652 0 l 1,1,-1
 457 0 l 1,2,-1
 457 183 l 1,3,-1
 652 185 l 1,0,-1
32 1032 m 0,4,5
 32 1219 32 1219 160 1324 c 0,6,7
 289 1430 289 1430 511 1430 c 0,8,9
 725 1430 725 1430 855 1324 c 0,10,11
 986 1217 986 1217 1011 1020 c 1,12,-1
 827 1008 l 1,13,14
 814 1130 814 1130 731 1200 c 0,15,16
 649 1270 649 1270 509 1270 c 0,17,18
 370 1270 370 1270 292 1204 c 128,-1,19
 214 1138 214 1138 214 1024 c 0,20,21
 214 964 214 964 232 921 c 128,-1,22
 250 878 250 878 281 842 c 0,23,24
 313 805 313 805 350 778 c 0,25,26
 391 748 391 748 428 722 c 128,-1,27
 465 696 465 696 507 662 c 0,28,29
 545 632 545 632 577 590 c 0,30,31
 609 549 609 549 628 498 c 0,32,33
 648 445 648 445 649 377 c 1,34,-1
 456 377 l 1,35,36
 454 462 454 462 430 502 c 0,37,38
 389 570 389 570 331 612 c 2,39,-1
 251 671 l 2,40,41
 159 738 159 738 117 789 c 0,42,43
 77 838 77 838 54 898 c 0,44,45
 32 955 32 955 32 1032 c 0,4,5
EndSplineSet
Validated: 1
EndChar

StartChar: uni2E41
Encoding: 15 11841 10
Width: 255
Flags: W
LayerCount: 2
Fore
SplineSet
32 0 m 1,0,-1
 32 183 l 1,1,-1
 223 185 l 1,2,-1
 223 0 l 1,3,-1
 128 0 l 1,4,-1
 158 -84 l 1,5,-1
 222 -163 l 1,6,-1
 127 -163 l 1,7,-1
 63 -84 l 1,8,-1
 32 0 l 1,0,-1
EndSplineSet
Validated: 1
EndChar

StartChar: uni2E42
Encoding: 16 11842 11
Width: 596
Flags: W
LayerCount: 2
Fore
SplineSet
372 1 m 1,0,-1
 372 184 l 1,1,-1
 564 186 l 1,2,-1
 564 1 l 1,3,-1
 468 1 l 1,4,-1
 498 -83 l 1,5,-1
 562 -162 l 1,6,-1
 468 -162 l 1,7,-1
 404 -83 l 1,8,-1
 372 1 l 1,0,-1
32 0 m 1,9,-1
 32 183 l 1,10,-1
 224 185 l 1,11,-1
 224 0 l 1,12,-1
 128 0 l 1,13,-1
 158 -84 l 1,14,-1
 222 -163 l 1,15,-1
 128 -163 l 1,16,-1
 64 -84 l 1,17,-1
 32 0 l 1,9,-1
EndSplineSet
Validated: 1
EndChar

StartChar: u10C80
Encoding: 17 68736 12
Width: 1209
Flags: W
LayerCount: 2
Fore
SplineSet
941 1409 m 1,0,-1
 936 0 l 1,1,-1
 745 0 l 1,2,-1
 744 629 l 1,3,-1
 33 627 l 1,4,-1
 32 772 l 1,5,-1
 750 1409 l 1,6,-1
 941 1409 l 1,0,-1
748 781 m 1,7,-1
 748 1217 l 1,8,-1
 252 778 l 1,9,-1
 748 781 l 1,7,-1
EndSplineSet
Validated: 1
EndChar

StartChar: u10C81
Encoding: 18 68737 13
Width: 1139
Flags: W
LayerCount: 2
Fore
SplineSet
871 1409 m 1,0,-1
 866 0 l 1,1,-1
 675 0 l 1,2,-1
 674 629 l 1,3,-1
 33 927 l 1,4,-1
 32 1072 l 1,5,-1
 680 1409 l 1,6,-1
 871 1409 l 1,0,-1
678 781 m 1,7,-1
 678 1257 l 1,8,-1
 212 1018 l 1,9,-1
 678 781 l 1,7,-1
EndSplineSet
Validated: 1
EndChar

StartChar: u10C82
Encoding: 19 68738 14
Width: 1297
Flags: W
LayerCount: 2
Fore
SplineSet
1076 0 m 1,0,-1
 653 616 l 1,1,-1
 221 0 l 1,2,-1
 10 0 l 1,3,-1
 546 732 l 1,4,-1
 51 1409 l 1,5,-1
 262 1409 l 1,6,-1
 654 856 l 1,7,-1
 1035 1409 l 1,8,-1
 1246 1409 l 1,9,-1
 764 739 l 1,10,-1
 1287 0 l 1,11,-1
 1076 0 l 1,0,-1
EndSplineSet
Validated: 1
EndChar

StartChar: u10C83
Encoding: 20 68739 15
Width: 1759
Flags: W
LayerCount: 2
Fore
SplineSet
1188 111 m 1,0,-1
 1188 154 l 1,1,2
 1109 88 1109 88 990 5 c 1,3,-1
 822 5 l 1,4,5
 799 21 799 21 757.5 50 c 128,-1,6
 716 79 716 79 694.5 94.5 c 128,-1,7
 673 110 673 110 643.5 133 c 128,-1,8
 614 156 614 156 590 178 c 1,9,-1
 589 140 l 1,10,11
 563 121 563 121 533 83 c 128,-1,12
 503 45 503 45 477 21.5 c 128,-1,13
 451 -2 451 -2 418 -2 c 0,14,15
 404 -2 404 -2 396 0 c 0,16,17
 358 9 358 9 328.5 28.5 c 128,-1,18
 299 48 299 48 277.5 78.5 c 128,-1,19
 256 109 256 109 241 137.5 c 128,-1,20
 226 166 226 166 205.5 209.5 c 128,-1,21
 185 253 185 253 169 280 c 0,22,23
 165 287 165 287 165 289 c 0,24,25
 165 290 165 290 166 290 c 0,26,27
 170 290 170 290 199 264 c 128,-1,28
 228 238 228 238 264.5 208 c 128,-1,29
 301 178 301 178 320 170 c 0,30,31
 329 166 329 166 339 166 c 0,32,33
 355 166 355 166 370 177 c 128,-1,34
 385 188 385 188 392 199 c 2,35,-1
 398 210 l 1,36,-1
 400 410 l 1,37,38
 304 567 304 567 304 714 c 0,39,40
 304 871 304 871 398 1031 c 1,41,-1
 398 1229 l 1,42,43
 351 1244 351 1244 288 1246 c 2,44,-1
 287 1246 l 2,45,46
 267 1246 267 1246 238.5 1222 c 128,-1,47
 210 1198 210 1198 187 1174.5 c 128,-1,48
 164 1151 164 1151 156 1151 c 0,49,50
 150 1151 150 1151 150 1162 c 0,51,52
 150 1201 150 1201 188.5 1270 c 128,-1,53
 227 1339 227 1339 280.5 1394.5 c 128,-1,54
 334 1450 334 1450 371 1450 c 2,55,-1
 372 1450 l 2,56,57
 410 1449 410 1449 446.5 1431.5 c 128,-1,58
 483 1414 483 1414 507.5 1389 c 128,-1,59
 532 1364 532 1364 551.5 1339 c 128,-1,60
 571 1314 571 1314 580 1296 c 2,61,-1
 589 1279 l 1,62,-1
 589 1239 l 1,63,64
 665 1314 665 1314 803 1414 c 1,65,-1
 987 1414 l 1,66,67
 1100 1334 1100 1334 1176 1272 c 1,68,-1
 1177 1316 l 1,69,70
 1182 1323 1182 1323 1201.5 1349 c 128,-1,71
 1221 1375 1221 1375 1230.5 1387 c 128,-1,72
 1240 1399 1240 1399 1259 1420.5 c 128,-1,73
 1278 1442 1278 1442 1292 1452 c 128,-1,74
 1306 1462 1306 1462 1325.5 1470.5 c 128,-1,75
 1345 1479 1345 1479 1363 1479 c 0,76,77
 1373 1479 1373 1479 1378 1478 c 0,78,79
 1404 1473 1404 1473 1426.5 1462.5 c 128,-1,80
 1449 1452 1449 1452 1465.5 1441.5 c 128,-1,81
 1482 1431 1482 1431 1499 1410 c 128,-1,82
 1516 1389 1516 1389 1526 1375.5 c 128,-1,83
 1536 1362 1536 1362 1549.5 1333.5 c 128,-1,84
 1563 1305 1563 1305 1568.5 1292.5 c 128,-1,85
 1574 1280 1574 1280 1587 1247 c 128,-1,86
 1600 1214 1600 1214 1604 1204 c 0,87,88
 1607 1198 1607 1198 1607 1195 c 0,89,90
 1607 1193 1607 1193 1605 1193 c 0,91,92
 1601 1193 1601 1193 1546 1240 c 128,-1,93
 1491 1287 1491 1287 1466 1292 c 0,94,95
 1461 1293 1461 1293 1450 1293 c 0,96,97
 1434 1293 1434 1293 1414 1289.5 c 128,-1,98
 1394 1286 1394 1286 1382 1283 c 2,99,-1
 1369 1280 l 1,100,-1
 1370 1060 l 1,101,102
 1500 869 1500 869 1500 702 c 0,103,104
 1500 610 1500 610 1471 529 c 128,-1,105
 1442 448 1442 448 1379 362 c 1,106,-1
 1379 195 l 1,107,108
 1387 187 1387 187 1399 174 c 128,-1,109
 1411 161 1411 161 1416 155.5 c 128,-1,110
 1421 150 1421 150 1428.5 145.5 c 128,-1,111
 1436 141 1436 141 1443 141 c 0,112,113
 1455 141 1455 141 1471 154 c 0,114,115
 1490 169 1490 169 1521 209 c 128,-1,116
 1552 249 1552 249 1576 280 c 128,-1,117
 1600 311 1600 311 1606 311 c 0,118,119
 1609 311 1609 311 1609 307 c 0,120,121
 1609 306 1609 306 1607 296 c 0,122,123
 1600 264 1600 264 1597 222 c 128,-1,124
 1594 180 1594 180 1592.5 151 c 128,-1,125
 1591 122 1591 122 1584 91 c 128,-1,126
 1577 60 1577 60 1558 37.5 c 128,-1,127
 1539 15 1539 15 1505 0 c 0,128,129
 1488 -8 1488 -8 1461 -8 c 0,130,131
 1412 -8 1412 -8 1344 22 c 128,-1,132
 1276 52 1276 52 1232 82 c 2,133,-1
 1188 111 l 1,0,-1
892 1271 m 1,134,135
 793 1205 793 1205 699.5 1096 c 128,-1,136
 606 987 606 987 550 879.5 c 128,-1,137
 494 772 494 772 494 704 c 0,138,139
 494 604 494 604 619.5 440 c 128,-1,140
 745 276 745 276 905 157 c 1,141,142
 1062 273 1062 273 1185.5 436 c 128,-1,143
 1309 599 1309 599 1309 701 c 0,144,145
 1309 769 1309 769 1248 878 c 128,-1,146
 1187 987 1187 987 1089.5 1095.5 c 128,-1,147
 992 1204 992 1204 892 1271 c 1,134,135
EndSplineSet
Validated: 1
EndChar

StartChar: u10C84
Encoding: 21 68740 16
Width: 1461
Flags: W
LayerCount: 2
Fore
SplineSet
635 1229 m 1,0,-1
 376 993 l 1,1,-1
 150 993 l 1,2,-1
 635 1409 l 1,3,-1
 826 1410 l 1,4,-1
 1311 994 l 1,5,-1
 1085 994 l 1,6,-1
 826 1230 l 1,7,-1
 826 0 l 1,8,-1
 635 0 l 1,9,-1
 635 1229 l 1,0,-1
EndSplineSet
Validated: 1
EndChar

StartChar: u10C85
Encoding: 22 68741 17
Width: 1461
Flags: W
LayerCount: 2
Fore
SplineSet
826 1 m 1,0,-1
 635 1 l 1,1,-1
 150 420 l 1,2,-1
 376 420 l 1,3,-1
 635 184 l 1,4,-1
 635 1229 l 1,5,-1
 376 993 l 1,6,-1
 150 993 l 1,7,-1
 635 1409 l 1,8,-1
 826 1410 l 1,9,-1
 1311 994 l 1,10,-1
 1085 994 l 1,11,-1
 826 1230 l 1,12,-1
 826 183 l 1,13,-1
 1085 419 l 1,14,-1
 1311 419 l 1,15,-1
 826 1 l 1,0,-1
EndSplineSet
Validated: 1
EndChar

StartChar: u10C86
Encoding: 23 68742 18
Width: 1444
Flags: W
LayerCount: 2
Fore
SplineSet
1103 633 m 1,0,-1
 1103 1203 l 1,1,-1
 341 767 l 1,2,-1
 341 203 l 1,3,-1
 1103 633 l 1,0,-1
1103 1409 m 1,4,-1
 1294 1409 l 1,5,-1
 1294 0 l 1,6,-1
 1103 0 l 1,7,-1
 1103 473 l 1,8,-1
 341 43 l 1,9,-1
 341 0 l 1,10,-1
 150 0 l 1,11,-1
 150 1409 l 1,12,-1
 341 1409 l 1,13,-1
 341 937 l 1,14,-1
 1100 1364 l 1,15,-1
 1103 1409 l 1,4,-1
EndSplineSet
Validated: 1
EndChar

StartChar: u10C87
Encoding: 24 68743 19
Width: 1142
Flags: W
LayerCount: 2
Fore
SplineSet
655 839 m 1,0,-1
 992 1050 l 1,1,-1
 992 893 l 1,2,-1
 653 681 l 1,3,-1
 649 0 l 1,4,-1
 458 0 l 1,5,-1
 458 586 l 1,6,-1
 150 393 l 1,7,-1
 150 550 l 1,8,-1
 459 750 l 1,9,-1
 458 1409 l 1,10,-1
 649 1409 l 1,11,-1
 655 839 l 1,0,-1
EndSplineSet
Validated: 1
EndChar

StartChar: u10C88
Encoding: 25 68744 20
Width: 1267
Flags: W
LayerCount: 2
Fore
SplineSet
749 707 m 1,0,-1
 1257 0 l 1,1,-1
 1066 0 l 1,2,-1
 643 616 l 1,3,-1
 211 0 l 1,4,-1
 10 0 l 1,5,-1
 459 625 l 1,6,-1
 63 443 l 1,7,-1
 63 600 l 1,8,-1
 504 785 l 1,9,-1
 51 1409 l 1,10,-1
 252 1409 l 1,11,-1
 644 856 l 1,12,-1
 1025 1409 l 1,13,-1
 1216 1409 l 1,14,-1
 864 903 l 1,15,-1
 1225 1060 l 1,16,-1
 1225 903 l 1,17,-1
 749 707 l 1,0,-1
EndSplineSet
Validated: 1
EndChar

StartChar: u10C89
Encoding: 26 68745 21
Width: 1098
Flags: W
LayerCount: 2
Fore
SplineSet
177 197 m 1,0,1
 276 197 276 197 306 207 c 0,2,3
 461 256 461 256 505 294 c 1,4,-1
 311 456 l 1,5,-1
 422 569 l 1,6,-1
 614 409 l 1,7,8
 687 516 687 516 706 558 c 0,9,10
 740 632 740 632 740 726 c 0,11,12
 740 883 740 883 624 1032 c 1,13,-1
 428 864 l 1,14,-1
 311 976 l 1,15,-1
 505 1139 l 1,16,17
 424 1200 424 1200 306 1215 c 0,18,19
 251 1222 251 1222 187 1222 c 2,20,-1
 160 1222 l 1,21,-1
 150 1414 l 1,22,23
 342 1405 342 1405 377 1396 c 0,24,25
 517 1360 517 1360 637 1263 c 1,26,-1
 813 1419 l 1,27,-1
 940 1308 l 1,28,-1
 775 1158 l 1,29,30
 931 956 931 956 932 716 c 2,31,-1
 932 709 l 2,32,33
 932 616 932 616 912.5 543.5 c 128,-1,34
 893 471 893 471 863.5 421 c 128,-1,35
 834 371 834 371 773 290 c 1,36,-1
 948 137 l 1,37,-1
 827 12 l 1,38,-1
 659 162 l 1,39,40
 546 72 546 72 377 23 c 0,41,42
 326 8 326 8 187 5 c 1,43,-1
 177 197 l 1,0,1
EndSplineSet
Validated: 1
EndChar

StartChar: u10C8A
Encoding: 27 68746 22
Width: 1627
Flags: W
LayerCount: 2
Fore
SplineSet
828 318 m 1,0,1
 1018 446 1018 446 1109.5 536 c 128,-1,2
 1201 626 1201 626 1201 697 c 0,3,4
 1201 776 1201 776 1103 871.5 c 128,-1,5
 1005 967 1005 967 802 1097 c 1,6,7
 627 972 627 972 542.5 880.5 c 128,-1,8
 458 789 458 789 458 714 c 0,9,10
 458 635 458 635 549 540.5 c 128,-1,11
 640 446 640 446 828 318 c 1,0,1
818 142 m 1,12,13
 765 125 765 125 637.5 72 c 128,-1,14
 510 19 510 19 457 2 c 1,15,-1
 150 2 l 1,16,17
 152 11 152 11 152 38 c 0,18,19
 152 51 152 51 151.5 79 c 128,-1,20
 151 107 151 107 151 119 c 2,21,-1
 151 136 l 1,22,23
 195 124 195 124 269 124 c 0,24,25
 347 124 347 124 371 135 c 0,26,27
 417 156 417 156 504.5 180 c 128,-1,28
 592 204 592 204 631 227 c 1,29,30
 439 367 439 367 352.5 477 c 128,-1,31
 266 587 266 587 266 712 c 0,32,33
 266 836 266 836 350 942.5 c 128,-1,34
 434 1049 434 1049 622 1184 c 1,35,36
 584 1208 584 1208 513 1234 c 128,-1,37
 442 1260 442 1260 371 1270 c 0,38,39
 353 1273 353 1273 319 1273 c 0,40,41
 298 1273 298 1273 253.5 1270.5 c 128,-1,42
 209 1268 209 1268 183 1268 c 2,43,-1
 161 1268 l 1,44,45
 161 1276 161 1276 160.5 1312 c 128,-1,46
 160 1348 160 1348 157.5 1374 c 128,-1,47
 155 1400 155 1400 150 1411 c 1,48,-1
 458 1411 l 1,49,50
 533 1382 533 1382 610 1347 c 128,-1,51
 687 1312 687 1312 735.5 1287 c 128,-1,52
 784 1262 784 1262 789 1260 c 0,53,54
 845 1279 845 1279 975.5 1336 c 128,-1,55
 1106 1393 1106 1393 1160 1411 c 1,56,-1
 1477 1411 l 1,57,58
 1475 1396 1475 1396 1474 1362 c 128,-1,59
 1473 1328 1473 1328 1472.5 1303 c 128,-1,60
 1472 1278 1472 1278 1471 1278 c 2,61,-1
 1471 1279 l 1,62,63
 1438 1276 1438 1276 1409 1276 c 128,-1,64
 1380 1276 1380 1276 1340.5 1279 c 128,-1,65
 1301 1282 1301 1282 1292 1282 c 0,66,67
 1278 1282 1278 1282 1271 1279 c 0,68,69
 1074 1241 1074 1241 973 1180 c 1,70,71
 1193 1044 1193 1044 1292.5 933.5 c 128,-1,72
 1392 823 1392 823 1392 693 c 0,73,74
 1392 573 1392 573 1307 467 c 128,-1,75
 1222 361 1222 361 1031 223 c 1,76,77
 1061 203 1061 203 1125.5 176.5 c 128,-1,78
 1190 150 1190 150 1216 137 c 0,79,80
 1241 124 1241 124 1342 124 c 0,81,82
 1347 124 1347 124 1467 127 c 1,83,84
 1469 111 1469 111 1469 80 c 0,85,86
 1469 63 1469 63 1468 38 c 128,-1,87
 1467 13 1467 13 1467 7 c 2,88,-1
 1467 2 l 1,89,-1
 1160 2 l 1,90,91
 1120 16 1120 16 1080 31 c 128,-1,92
 1040 46 1040 46 1008.5 59 c 128,-1,93
 977 72 977 72 948.5 85 c 128,-1,94
 920 98 920 98 899 108 c 128,-1,95
 878 118 878 118 863 126 c 128,-1,96
 848 134 848 134 840 138 c 2,97,-1
 832 142 l 1,98,-1
 818 142 l 1,12,13
EndSplineSet
Validated: 1
EndChar

StartChar: u10C8B
Encoding: 28 68747 23
Width: 1040
Flags: W
LayerCount: 2
Fore
SplineSet
157 273 m 1,0,1
 415 357 415 357 535.5 438.5 c 128,-1,2
 656 520 656 520 656 620 c 2,3,-1
 656 728 l 2,4,5
 656 875 656 875 558 966.5 c 128,-1,6
 460 1058 460 1058 252 1122 c 1,7,-1
 154 1142 l 1,8,-1
 150 1272 l 1,9,-1
 551 1410 l 1,10,-1
 753 1409 l 1,11,-1
 756 1305 l 1,12,-1
 405 1228 l 1,13,14
 630 1134 630 1134 760 993 c 128,-1,15
 890 852 890 852 890 693 c 0,16,17
 890 590 890 590 771 471.5 c 128,-1,18
 652 353 652 353 425 209 c 1,19,-1
 768 104 l 1,20,-1
 766 0 l 1,21,-1
 564 1 l 1,22,-1
 160 142 l 1,23,-1
 157 273 l 1,0,1
EndSplineSet
Validated: 1
EndChar

StartChar: u10C8C
Encoding: 29 68748 24
Width: 1496
Flags: W
LayerCount: 2
Fore
SplineSet
726 604 m 1,0,-1
 514 333 l 1,1,2
 548 292 548 292 583 266 c 128,-1,3
 618 240 618 240 666.5 212 c 128,-1,4
 715 184 715 184 751 157 c 1,5,6
 794 188 794 188 856 246.5 c 128,-1,7
 918 305 918 305 960 351 c 1,8,-1
 726 604 l 1,0,-1
648 681 m 1,9,-1
 397 921 l 1,10,11
 378 890 378 890 367.5 867.5 c 128,-1,12
 357 845 357 845 348 807.5 c 128,-1,13
 339 770 339 770 339 729 c 0,14,15
 339 725 339 725 339.5 716.5 c 128,-1,16
 340 708 340 708 340 704 c 0,17,18
 345 610 345 610 362.5 550 c 128,-1,19
 380 490 380 490 423 437 c 1,20,-1
 648 681 l 1,9,-1
712 775 m 1,21,-1
 977 1055 l 1,22,23
 879 1177 879 1177 738 1271 c 1,24,25
 676 1229 676 1229 595 1157.5 c 128,-1,26
 514 1086 514 1086 462 1024 c 1,27,-1
 712 775 l 1,21,-1
804 674 m 1,28,-1
 1045 443 l 1,29,30
 1053 454 1053 454 1076.5 488 c 128,-1,31
 1100 522 1100 522 1108.5 537 c 128,-1,32
 1117 552 1117 552 1131 580.5 c 128,-1,33
 1145 609 1145 609 1150 637.5 c 128,-1,34
 1155 666 1155 666 1155 699 c 0,35,36
 1155 753 1155 753 1136 805.5 c 128,-1,37
 1117 858 1117 858 1099.5 884.5 c 128,-1,38
 1082 911 1082 911 1055 945 c 1,39,-1
 804 674 l 1,28,-1
668 5 m 1,40,41
 398 198 398 198 274 364 c 128,-1,42
 150 530 150 530 150 714 c 0,43,44
 150 896 150 896 270 1061 c 128,-1,45
 390 1226 390 1226 649 1414 c 1,46,-1
 833 1414 l 1,47,48
 1102 1225 1102 1225 1224 1056.5 c 128,-1,49
 1346 888 1346 888 1346 702 c 0,50,51
 1346 517 1346 517 1225.5 354 c 128,-1,52
 1105 191 1105 191 836 5 c 1,53,-1
 668 5 l 1,40,41
EndSplineSet
Validated: 1
EndChar

StartChar: u10C8D
Encoding: 30 68749 25
Width: 1378
Flags: W
LayerCount: 2
Fore
SplineSet
863 812 m 1,0,-1
 691 1265 l 1,1,-1
 208 0 l 1,2,-1
 10 0 l 1,3,-1
 585 1409 l 1,4,-1
 802 1409 l 1,5,-1
 1368 0 l 1,6,-1
 1173 0 l 1,7,-1
 940 595 l 1,8,-1
 701 0 l 1,9,10
 701 0 701 0 508 0 c 1,11,-1
 863 812 l 1,0,-1
EndSplineSet
Validated: 1
EndChar

StartChar: u10C8E
Encoding: 31 68750 26
Width: 1142
Flags: W
LayerCount: 2
Fore
SplineSet
654 819 m 1,0,-1
 655 549 l 1,1,-1
 992 760 l 1,2,-1
 992 603 l 1,3,-1
 653 391 l 1,4,-1
 649 0 l 1,5,-1
 458 0 l 1,6,-1
 458 296 l 1,7,-1
 150 103 l 1,8,-1
 150 260 l 1,9,-1
 459 460 l 1,10,-1
 459 727 l 1,11,-1
 150 533 l 1,12,-1
 150 690 l 1,13,-1
 458 891 l 1,14,-1
 458 1409 l 1,15,-1
 649 1409 l 1,16,-1
 651 979 l 1,17,-1
 992 1190 l 1,18,-1
 992 1033 l 1,19,-1
 654 819 l 1,0,-1
EndSplineSet
Validated: 1
EndChar

StartChar: u10C8F
Encoding: 32 68751 27
Width: 1253
Flags: W
LayerCount: 2
Fore
SplineSet
1023 2 m 1,0,-1
 637 298 l 1,1,-1
 234 2 l 1,2,-1
 151 2 l 1,3,-1
 150 90 l 1,4,-1
 535 379 l 1,5,-1
 207 637 l 1,6,-1
 202 788 l 1,7,-1
 524 987 l 1,8,-1
 153 1240 l 1,9,-1
 153 1405 l 1,10,-1
 214 1405 l 1,11,-1
 642 1070 l 1,12,-1
 1053 1405 l 1,13,-1
 1094 1404 l 1,14,-1
 1098 1241 l 1,15,-1
 760 997 l 1,16,-1
 1090 786 l 1,17,-1
 1094 635 l 1,18,-1
 740 380 l 1,19,-1
 1098 95 l 1,20,-1
 1103 1 l 1,21,-1
 1023 2 l 1,0,-1
942 705 m 1,22,-1
 641 911 l 1,23,-1
 351 700 l 1,24,-1
 641 472 l 1,25,-1
 942 705 l 1,22,-1
EndSplineSet
Validated: 1
EndChar

StartChar: u10C90
Encoding: 33 68752 28
Width: 1142
Flags: W
LayerCount: 2
Fore
SplineSet
655 1209 m 1,0,-1
 992 1420 l 1,1,-1
 992 1263 l 1,2,-1
 653 1051 l 1,3,-1
 649 0 l 1,4,-1
 458 0 l 1,5,-1
 458 956 l 1,6,-1
 150 763 l 1,7,-1
 150 920 l 1,8,-1
 459 1120 l 1,9,-1
 458 1409 l 1,10,-1
 649 1409 l 1,11,-1
 655 1209 l 1,0,-1
EndSplineSet
Validated: 1
EndChar

StartChar: u10C91
Encoding: 34 68753 29
Width: 1142
Flags: W
LayerCount: 2
Fore
SplineSet
989 1430 m 1,0,-1
 992 1263 l 1,1,-1
 653 1051 l 1,2,-1
 649 0 l 1,3,-1
 458 0 l 1,4,-1
 458 956 l 1,5,-1
 150 763 l 1,6,-1
 150 920 l 1,7,-1
 989 1430 l 1,0,-1
EndSplineSet
Validated: 1
EndChar

StartChar: u10C92
Encoding: 35 68754 30
Width: 953
Flags: W
LayerCount: 2
Fore
SplineSet
150 1050 m 1,0,-1
 608 1409 l 1,1,-1
 803 1411 l 1,2,-1
 799 1 l 1,3,-1
 608 1 l 1,4,-1
 608 1236 l 1,5,-1
 150 883 l 1,6,-1
 150 1050 l 1,0,-1
EndSplineSet
Validated: 1
EndChar

StartChar: u10C93
Encoding: 36 68755 31
Width: 1051
Flags: W
LayerCount: 2
Fore
SplineSet
522 152 m 1,0,-1
 855 718 l 1,1,-1
 522 1258 l 1,2,-1
 197 712 l 1,3,-1
 522 152 l 1,0,-1
619 5 m 1,4,-1
 428 4 l 1,5,-1
 5 711 l 1,6,-1
 422 1413 l 1,7,-1
 613 1414 l 1,8,-1
 1046 718 l 1,9,-1
 619 5 l 1,4,-1
EndSplineSet
Validated: 1
EndChar

StartChar: u10C94
Encoding: 37 68756 32
Width: 1471
Flags: W
LayerCount: 2
Fore
SplineSet
1321 662 m 1,0,-1
 851 1 l 1,1,-1
 672 2 l 1,2,-1
 660 1206 l 1,3,-1
 341 792 l 1,4,-1
 150 793 l 1,5,-1
 664 1411 l 1,6,-1
 845 1410 l 1,7,-1
 845 203 l 1,8,-1
 1130 660 l 1,9,-1
 1321 662 l 1,0,-1
EndSplineSet
Validated: 1
EndChar

StartChar: u10C95
Encoding: 38 68757 33
Width: 1333
Flags: W
LayerCount: 2
Fore
SplineSet
275 136 m 1,0,-1
 574 749 l 1,1,-1
 331 1269 l 1,2,-1
 10 944 l 1,3,-1
 10 1129 l 1,4,-1
 259 1409 l 1,5,-1
 426 1409 l 1,6,-1
 676 856 l 1,7,-1
 928 1411 l 1,8,-1
 1095 1411 l 1,9,-1
 1313 1184 l 1,10,-1
 1323 989 l 1,11,-1
 1021 1295 l 1,12,-1
 765 748 l 1,13,-1
 1037 147 l 1,14,-1
 1321 543 l 1,15,-1
 1323 278 l 1,16,-1
 1127 2 l 1,17,-1
 960 2 l 1,18,-1
 661 637 l 1,19,-1
 359 2 l 1,20,-1
 191 2 l 1,21,-1
 10 268 l 1,22,-1
 10 488 l 1,23,-1
 275 136 l 1,0,-1
EndSplineSet
Validated: 1
EndChar

StartChar: u10C96
Encoding: 39 68758 34
Width: 1798
Flags: W
LayerCount: 2
Fore
SplineSet
891 1265 m 1,0,-1
 208 0 l 1,1,-1
 10 0 l 1,2,-1
 785 1409 l 1,3,-1
 1002 1409 l 1,4,-1
 1788 0 l 1,5,-1
 1590 0 l 1,6,-1
 1370 385 l 1,7,-1
 1147 0 l 1,8,-1
 949 0 l 1,9,-1
 1282 562 l 1,10,-1
 1163 776 l 1,11,-1
 701 0 l 1,12,-1
 503 0 l 1,13,-1
 1051 974 l 1,14,-1
 891 1265 l 1,0,-1
EndSplineSet
Validated: 1
EndChar

StartChar: u10C97
Encoding: 40 68759 35
Width: 1496
Flags: W
LayerCount: 2
Fore
SplineSet
804 871 m 1,0,-1
 896 783 l 1,1,-1
 514 383 l 1,2,3
 572 312 572 312 624.5 262.5 c 128,-1,4
 677 213 677 213 751 157 c 1,5,6
 900 267 900 267 1019.5 431 c 128,-1,7
 1139 595 1139 595 1155 701 c 0,8,9
 1156 705 1156 705 1156 713 c 0,10,11
 1156 801 1156 801 1035 985 c 0,12,13
 966 1086 966 1086 895 1150 c 128,-1,14
 824 1214 824 1214 738 1271 c 1,15,16
 591 1173 591 1173 463.5 1006.5 c 128,-1,17
 336 840 336 840 336 735 c 0,18,19
 336 716 336 716 340 704 c 0,20,21
 342 698 342 698 346.5 680.5 c 128,-1,22
 351 663 351 663 353 656.5 c 128,-1,23
 355 650 355 650 359.5 634.5 c 128,-1,24
 364 619 364 619 367 611.5 c 128,-1,25
 370 604 370 604 375.5 590 c 128,-1,26
 381 576 381 576 386.5 567 c 128,-1,27
 392 558 392 558 399 545 c 128,-1,28
 406 532 406 532 414.5 520.5 c 128,-1,29
 423 509 423 509 433 497 c 1,30,-1
 804 871 l 1,0,-1
668 5 m 1,31,32
 398 198 398 198 274 364 c 128,-1,33
 150 530 150 530 150 714 c 0,34,35
 150 896 150 896 270 1061 c 128,-1,36
 390 1226 390 1226 649 1414 c 1,37,-1
 833 1414 l 1,38,39
 1102 1225 1102 1225 1224 1056.5 c 128,-1,40
 1346 888 1346 888 1346 702 c 0,41,42
 1346 517 1346 517 1225.5 354 c 128,-1,43
 1105 191 1105 191 836 5 c 1,44,-1
 668 5 l 1,31,32
EndSplineSet
Validated: 1
EndChar

StartChar: u10C98
Encoding: 41 68760 36
Width: 1109
Flags: W
LayerCount: 2
Fore
SplineSet
763 -1 m 1,0,-1
 151 257 l 1,1,-1
 151 419 l 1,2,-1
 662 681 l 1,3,-1
 151 937 l 1,4,-1
 150 1082 l 1,5,-1
 768 1409 l 1,6,-1
 959 1409 l 1,7,-1
 954 0 l 1,8,-1
 763 -1 l 1,0,-1
763 144 m 1,9,-1
 762 579 l 1,10,-1
 312 342 l 1,11,-1
 763 144 l 1,9,-1
766 781 m 1,12,-1
 766 1257 l 1,13,-1
 300 1018 l 1,14,-1
 766 781 l 1,12,-1
EndSplineSet
Validated: 1
EndChar

StartChar: u10C99
Encoding: 42 68761 37
Width: 912
Flags: W
LayerCount: 2
Fore
SplineSet
150 189 m 1,0,1
 240 199 240 199 272 210 c 0,2,3
 445 267 445 267 550 389 c 0,4,5
 635 488 635 488 671.5 558 c 128,-1,6
 708 628 708 628 709 728 c 0,7,8
 709 815 709 815 668.5 891 c 128,-1,9
 628 967 628 967 550 1044 c 0,10,11
 460 1134 460 1134 272 1193 c 0,12,13
 194 1218 194 1218 162 1218 c 1,14,-1
 150 1409 l 1,15,16
 242 1405 242 1405 340 1381 c 0,17,18
 553 1326 553 1326 676 1201 c 0,19,20
 792 1085 792 1085 847 973 c 128,-1,21
 902 861 902 861 902 731 c 0,22,23
 902 596 902 596 850 488 c 128,-1,24
 798 380 798 380 676 234 c 0,25,26
 557 89 557 89 347 32 c 0,27,28
 256 7 256 7 150 0 c 1,29,-1
 150 189 l 1,0,1
EndSplineSet
Validated: 1
EndChar

StartChar: u10C9A
Encoding: 43 68762 38
Width: 1045
Flags: W
LayerCount: 2
Fore
SplineSet
313 3 m 1,0,-1
 150 3 l 1,1,-1
 150 1412 l 1,2,-1
 313 1412 l 1,3,4
 431 1401 431 1401 525 1379 c 0,5,6
 728 1330 728 1330 856 1201 c 0,7,8
 950 1108 950 1108 992.5 1016.5 c 128,-1,9
 1035 925 1035 925 1035 797 c 2,10,-1
 1035 758 l 1,11,-1
 1035 748 l 2,12,13
 1035 581 1035 581 992.5 466.5 c 128,-1,14
 950 352 950 352 859 248 c 0,15,16
 728 99 728 99 527 47 c 1,17,18
 431 12 431 12 313 3 c 1,0,-1
341 193 m 1,19,20
 390 197 390 197 465 222 c 0,21,22
 634 276 634 276 714 370 c 0,23,24
 781 447 781 447 812 534 c 128,-1,25
 843 621 843 621 843 743 c 0,26,27
 843 848 843 848 811.5 926 c 128,-1,28
 780 1004 780 1004 714 1068 c 0,29,30
 628 1152 628 1152 465 1196 c 0,31,32
 386 1217 386 1217 341 1221 c 1,33,-1
 341 193 l 1,19,20
EndSplineSet
Validated: 1
EndChar

StartChar: u10C9B
Encoding: 44 68763 39
Width: 1399
Flags: W
LayerCount: 2
Fore
SplineSet
500 198 m 1,0,1
 585 207 585 207 622 219 c 0,2,3
 692 242 692 242 736 259 c 128,-1,4
 780 276 780 276 832.5 308 c 128,-1,5
 885 340 885 340 919 378 c 0,6,7
 992 461 992 461 1024.5 542 c 128,-1,8
 1057 623 1057 623 1057 715 c 2,9,-1
 1057 716 l 1,10,-1
 1057 717 l 2,11,12
 1057 831 1057 831 1024.5 916 c 128,-1,13
 992 1001 992 1001 919 1073 c 0,14,15
 909 1083 909 1083 897.5 1092 c 128,-1,16
 886 1101 886 1101 875.5 1108 c 128,-1,17
 865 1115 865 1115 848.5 1123 c 128,-1,18
 832 1131 832 1131 821.5 1136 c 128,-1,19
 811 1141 811 1141 790 1148.5 c 128,-1,20
 769 1156 769 1156 759.5 1160 c 128,-1,21
 750 1164 750 1164 725.5 1171.5 c 128,-1,22
 701 1179 701 1179 692.5 1181.5 c 128,-1,23
 684 1184 684 1184 656.5 1192 c 128,-1,24
 629 1200 629 1200 622 1202 c 0,25,26
 571 1217 571 1217 523 1217 c 2,27,-1
 514 1217 l 1,28,-1
 510 1217 l 2,29,30
 508 1216 508 1216 507 1218.5 c 128,-1,31
 506 1221 506 1221 506 1227 c 2,32,-1
 342 986 l 1,33,-1
 150 988 l 1,34,-1
 390 1410 l 1,35,36
 641 1393 641 1393 689 1382 c 0,37,38
 926 1322 926 1322 1034 1213 c 0,39,40
 1148 1099 1148 1099 1198.5 983 c 128,-1,41
 1249 867 1249 867 1249 717 c 2,42,-1
 1249 716 l 2,43,44
 1249 593 1249 593 1197.5 475 c 128,-1,45
 1146 357 1146 357 1034 223 c 0,46,47
 974 151 974 151 890.5 109.5 c 128,-1,48
 807 68 807 68 696 42 c 0,49,50
 574 14 574 14 391 1 c 1,51,-1
 170 406 l 1,52,-1
 364 407 l 1,53,-1
 500 198 l 1,0,1
EndSplineSet
Validated: 1
EndChar

StartChar: u10C9C
Encoding: 45 68764 40
Width: 1409
Flags: W
LayerCount: 2
Fore
SplineSet
510 200 m 1,0,1
 515 201 515 201 526 201 c 0,2,3
 531 201 531 201 541.5 200.5 c 128,-1,4
 552 200 552 200 558 200 c 0,5,6
 598 200 598 200 632 211 c 0,7,8
 827 275 827 275 919 380 c 0,9,10
 1067 549 1067 549 1067 758 c 0,11,12
 1067 932 1067 932 919 1077 c 0,13,14
 892 1104 892 1104 846.5 1127 c 128,-1,15
 801 1150 801 1150 768 1161.5 c 128,-1,16
 735 1173 735 1173 660 1197 c 0,17,18
 654 1199 654 1199 650.5 1200 c 128,-1,19
 647 1201 647 1201 641.5 1203 c 128,-1,20
 636 1205 636 1205 632 1206 c 0,21,22
 584 1221 584 1221 533 1221 c 2,23,-1
 522 1221 l 1,24,-1
 506 1221 l 1,25,-1
 352 1030 l 1,26,-1
 160 1032 l 1,27,-1
 400 1414 l 1,28,29
 651 1397 651 1397 699 1386 c 0,30,31
 909 1333 909 1333 1034 1207 c 0,32,33
 1152 1088 1152 1088 1205.5 986.5 c 128,-1,34
 1259 885 1259 885 1259 758 c 0,35,36
 1259 620 1259 620 1205.5 503 c 128,-1,37
 1152 386 1152 386 1034 245 c 0,38,39
 905 90 905 90 706 44 c 0,40,41
 597 19 597 19 401 5 c 1,42,-1
 150 458 l 1,43,-1
 640 698 l 1,44,-1
 715 539 l 1,45,-1
 414 399 l 1,46,-1
 510 200 l 1,0,1
EndSplineSet
Validated: 1
EndChar

StartChar: u10C9D
Encoding: 46 68765 41
Width: 892
Flags: W
LayerCount: 2
Fore
SplineSet
289 1409 m 1,0,-1
 731 1011 l 1,1,-1
 342 460 l 1,2,-1
 742 123 l 1,3,-1
 653 -4 l 1,4,-1
 150 455 l 1,5,-1
 538 1001 l 1,6,-1
 200 1303 l 1,7,-1
 289 1409 l 1,0,-1
EndSplineSet
Validated: 1
EndChar

StartChar: u10C9E
Encoding: 47 68766 42
Width: 1055
Flags: W
LayerCount: 2
Fore
SplineSet
341 873 m 1,0,-1
 740 1409 l 1,1,-1
 965 1409 l 1,2,-1
 465 797 l 1,3,-1
 1045 0 l 1,4,-1
 808 0 l 1,5,-1
 341 680 l 1,6,-1
 341 0 l 1,7,-1
 150 0 l 1,8,-1
 150 1409 l 1,9,-1
 341 1409 l 1,10,-1
 341 873 l 1,0,-1
EndSplineSet
Validated: 1
EndChar

StartChar: u10C9F
Encoding: 48 68767 43
Width: 1457
Flags: W
LayerCount: 2
Fore
SplineSet
851 1126 m 0,0,1
 801 1152 801 1152 632 1206 c 0,2,3
 584 1221 584 1221 533 1221 c 2,4,5
 533 1221 533 1221 522 1221 c 2,6,7
 522 1221 522 1221 506 1221 c 1,8,-1
 352 1030 l 1,9,-1
 160 1032 l 1,10,-1
 400 1414 l 1,11,12
 651 1397 651 1397 699 1386 c 0,13,14
 868 1344 868 1344 983 1253 c 0,15,16
 984 1253 984 1253 984 1252.5 c 128,-1,17
 984 1252 984 1252 985 1252 c 0,18,19
 997 1252 997 1252 1039.5 1300 c 128,-1,20
 1082 1348 1082 1348 1118 1396 c 2,21,-1
 1155 1443 l 1,22,-1
 1277 1337 l 1,23,24
 1113 1141 1113 1141 1113 1128 c 1,25,-1
 1114 1127 l 2,26,27
 1166 1073 1166 1073 1194.5 1034.5 c 128,-1,28
 1223 996 1223 996 1237.5 951 c 128,-1,29
 1252 906 1252 906 1255.5 868 c 128,-1,30
 1259 830 1259 830 1259 758 c 0,31,32
 1259 631 1259 631 1229.5 539.5 c 128,-1,33
 1200 448 1200 448 1119 341 c 0,34,35
 1118 340 1118 340 1118 337 c 0,36,37
 1118 321 1118 321 1165 272.5 c 128,-1,38
 1212 224 1212 224 1260 184 c 2,39,-1
 1307 143 l 1,40,-1
 1189 33 l 1,41,42
 1023 207 1023 207 1001 207 c 1,43,-1
 999 206 l 1,44,45
 879 85 879 85 706 44 c 0,46,47
 597 19 597 19 401 5 c 1,48,-1
 150 458 l 1,49,-1
 640 698 l 1,50,-1
 715 539 l 1,51,-1
 414 399 l 1,52,-1
 510 200 l 1,53,54
 515 201 515 201 526 201 c 0,55,56
 531 201 531 201 541.5 200.5 c 128,-1,57
 552 200 552 200 558 200 c 0,58,59
 598 200 598 200 632 211 c 0,60,61
 798 266 798 266 887 347 c 0,62,63
 888 348 888 348 888 349 c 0,64,65
 888 357 888 357 860 387.5 c 128,-1,66
 832 418 832 418 804 444 c 2,67,-1
 775 471 l 1,68,-1
 875 587 l 1,69,-1
 983 495 l 1,70,71
 998 463 998 463 1015 463 c 0,72,73
 1024 463 1024 463 1031 475 c 0,74,75
 1107 604 1107 604 1107 748 c 0,76,77
 1107 847 1107 847 1095.5 877 c 128,-1,78
 1084 907 1084 907 1020 975 c 1,79,-1
 1000 1005 l 1,80,81
 995 1005 995 1005 964.5 970.5 c 128,-1,82
 934 936 934 936 906 902 c 2,83,-1
 879 867 l 1,84,-1
 755 991 l 1,85,86
 855 1090 855 1090 855 1119 c 0,87,88
 855 1125 855 1125 851 1126 c 0,0,1
EndSplineSet
Validated: 1
EndChar

StartChar: u10CA0
Encoding: 49 68768 44
Width: 1254
Flags: W
LayerCount: 2
Fore
SplineSet
913 1409 m 1,0,-1
 1104 1409 l 1,1,-1
 1104 0 l 1,2,-1
 913 0 l 1,3,-1
 913 433 l 1,4,-1
 151 3 l 1,5,-1
 151 163 l 1,6,-1
 913 593 l 1,7,-1
 913 843 l 1,8,-1
 151 411 l 1,9,-1
 150 571 l 1,10,-1
 913 1005 l 1,11,-1
 913 1233 l 1,12,-1
 151 797 l 1,13,-1
 151 967 l 1,14,-1
 913 1409 l 1,0,-1
EndSplineSet
Validated: 1
EndChar

StartChar: u10CA1
Encoding: 50 68769 45
Width: 1921
Flags: W
LayerCount: 2
Fore
SplineSet
923 1271 m 1,0,1
 824 1205 824 1205 730.5 1096 c 128,-1,2
 637 987 637 987 581 879.5 c 128,-1,3
 525 772 525 772 525 704 c 0,4,5
 525 604 525 604 650.5 440 c 128,-1,6
 776 276 776 276 936 157 c 1,7,8
 1093 273 1093 273 1216.5 436 c 128,-1,9
 1340 599 1340 599 1340 701 c 0,10,11
 1340 769 1340 769 1279 878 c 128,-1,12
 1218 987 1218 987 1120.5 1095.5 c 128,-1,13
 1023 1204 1023 1204 923 1271 c 1,0,1
1395 316 m 1,14,-1
 1395 314 l 2,15,16
 1395 298 1395 298 1461.5 219.5 c 128,-1,17
 1528 141 1528 141 1594 70 c 2,18,-1
 1660 0 l 1,19,-1
 1469 0 l 1,20,21
 1466 4 1466 4 1460.5 10.5 c 128,-1,22
 1455 17 1455 17 1439 36 c 128,-1,23
 1423 55 1423 55 1408 72.5 c 128,-1,24
 1393 90 1393 90 1373.5 111 c 128,-1,25
 1354 132 1354 132 1338.5 147 c 128,-1,26
 1323 162 1323 162 1309.5 172.5 c 128,-1,27
 1296 183 1296 183 1290 183 c 0,28,29
 1288 183 1288 183 1287 182 c 0,30,31
 1245 140 1245 140 1148.5 83.5 c 128,-1,32
 1052 27 1052 27 1021 5 c 1,33,-1
 853 5 l 1,34,35
 764 68 764 68 634 180 c 0,36,37
 633 181 633 181 630 181 c 0,38,39
 616 181 616 181 571.5 135.5 c 128,-1,40
 527 90 527 90 490 45 c 2,41,-1
 452 0 l 1,42,-1
 261 0 l 1,43,44
 523 266 523 266 523 292 c 1,45,-1
 522 293 l 1,46,47
 362 491 362 491 341 635 c 0,48,49
 341 638 341 638 337 638 c 0,50,51
 325 638 325 638 278.5 604 c 128,-1,52
 232 570 232 570 191 536 c 2,53,-1
 150 503 l 1,54,-1
 150 659 l 1,55,56
 158 664 158 664 170.5 673 c 128,-1,57
 183 682 183 682 216 706 c 128,-1,58
 249 730 249 730 275 750.5 c 128,-1,59
 301 771 301 771 323 792 c 128,-1,60
 345 813 345 813 347 823 c 0,61,62
 369 919 369 919 432.5 1007.5 c 128,-1,63
 496 1096 496 1096 613 1205 c 1,64,65
 608 1206 608 1206 608 1209 c 0,66,67
 608 1216 608 1216 633 1231 c 128,-1,68
 658 1246 658 1246 685 1259.5 c 128,-1,69
 712 1273 712 1273 714 1275 c 2,70,-1
 575 1216 l 1,71,-1
 495 1176 l 1,72,-1
 289 1073 l 1,73,-1
 289 1201 l 1,74,75
 890 1407 890 1407 912 1423 c 1,76,77
 923 1416 923 1416 1090.5 1365.5 c 128,-1,78
 1258 1315 1258 1315 1420 1268 c 2,79,-1
 1582 1221 l 1,80,-1
 1582 1093 l 1,81,82
 1352 1194 1352 1194 1350 1194 c 2,83,-1
 1130 1274 l 1,84,85
 1311 1131 1311 1131 1403.5 1038.5 c 128,-1,86
 1496 946 1496 946 1528 851 c 0,87,88
 1535 831 1535 831 1596 782.5 c 128,-1,89
 1657 734 1657 734 1714 696 c 2,90,-1
 1771 657 l 1,91,-1
 1768 501 l 1,92,93
 1572 648 1572 648 1539 648 c 0,94,95
 1534 648 1534 648 1534 645 c 0,96,97
 1522 570 1522 570 1484 478 c 128,-1,98
 1446 386 1446 386 1395 316 c 1,14,-1
EndSplineSet
Validated: 1
EndChar

StartChar: u10CA2
Encoding: 51 68770 46
Width: 1444
Flags: W
LayerCount: 2
Fore
SplineSet
1103 0 m 1,0,-1
 1103 863 l 1,1,-1
 341 433 l 1,2,-1
 341 0 l 1,3,-1
 150 0 l 1,4,-1
 150 1409 l 1,5,-1
 341 1409 l 1,6,-1
 341 593 l 1,7,-1
 1103 1023 l 1,8,-1
 1103 1409 l 1,9,-1
 1294 1409 l 1,10,-1
 1294 0 l 1,11,-1
 1103 0 l 1,0,-1
EndSplineSet
Validated: 1
EndChar

StartChar: u10CA3
Encoding: 52 68771 47
Width: 1062
Flags: W
LayerCount: 2
Fore
SplineSet
912 1020 m 1,0,-1
 912 863 l 1,1,-1
 150 433 l 1,2,-1
 150 590 l 1,3,-1
 912 1020 l 1,0,-1
EndSplineSet
Validated: 1
EndChar

StartChar: u10CA4
Encoding: 53 68772 48
Width: 1378
Flags: W
LayerCount: 2
Fore
SplineSet
959 555 m 1,0,-1
 774 1026 l 2,1,2
 750 1083 750 1083 718 1182 c 2,3,-1
 691 1265 l 1,4,-1
 682 1237 l 2,5,6
 652 1140 652 1140 608 1024 c 2,7,-1
 368 411 l 1,8,-1
 208 0 l 1,9,-1
 10 0 l 1,10,-1
 585 1409 l 1,11,-1
 802 1409 l 1,12,-1
 1368 0 l 1,13,-1
 1173 0 l 1,14,-1
 959 555 l 1,0,-1
EndSplineSet
Validated: 1
EndChar

StartChar: u10CA5
Encoding: 54 68773 49
Width: 491
Flags: W
LayerCount: 2
Fore
SplineSet
150 0 m 1,0,-1
 150 1409 l 1,1,-1
 341 1409 l 1,2,-1
 341 0 l 1,3,-1
 150 0 l 1,0,-1
EndSplineSet
Validated: 1
EndChar

StartChar: u10CA6
Encoding: 55 68774 50
Width: 963
Flags: W
LayerCount: 2
Fore
SplineSet
482 993 m 1,0,-1
 482 1409 l 1,1,-1
 673 1409 l 1,2,-1
 673 0 l 1,3,-1
 482 0 l 1,4,-1
 482 782 l 1,5,-1
 10 1405 l 1,6,-1
 181 1404 l 1,7,-1
 482 993 l 1,0,-1
EndSplineSet
Validated: 1
EndChar

StartChar: u10CA7
Encoding: 56 68775 51
Width: 1776
Flags: W
LayerCount: 2
Fore
SplineSet
322 965 m 1,0,-1
 150 965 l 1,1,-1
 482 1410 l 1,2,-1
 798 1003 l 1,3,-1
 797 1415 l 1,4,-1
 988 1415 l 1,5,-1
 989 1003 l 1,6,-1
 1303 1410 l 1,7,-1
 1626 961 l 1,8,-1
 1454 961 l 1,9,-1
 1302 1176 l 1,10,-1
 987 821 l 1,11,-1
 996 6 l 1,12,-1
 805 6 l 1,13,-1
 796 821 l 1,14,-1
 483 1166 l 1,15,-1
 322 965 l 1,0,-1
EndSplineSet
Validated: 1
EndChar

StartChar: u10CA8
Encoding: 57 68776 52
Width: 1257
Flags: W
LayerCount: 2
Fore
SplineSet
808 385 m 1,0,-1
 643 616 l 1,1,-1
 201 0 l 1,2,-1
 10 0 l 1,3,-1
 526 732 l 1,4,-1
 51 1409 l 1,5,-1
 242 1409 l 1,6,-1
 391 1203 l 1,7,-1
 538 1413 l 1,8,-1
 729 1413 l 1,9,-1
 487 1071 l 1,10,-1
 634 856 l 1,11,-1
 1015 1409 l 1,12,-1
 1206 1409 l 1,13,-1
 744 739 l 1,14,-1
 1247 0 l 1,15,-1
 1056 0 l 1,16,-1
 898 231 l 1,17,-1
 734 3 l 1,18,-1
 543 3 l 1,19,-1
 808 385 l 1,0,-1
EndSplineSet
Validated: 1
EndChar

StartChar: u10CA9
Encoding: 58 68777 53
Width: 1297
Flags: W
LayerCount: 2
Fore
SplineSet
974 172 m 1,0,-1
 653 616 l 1,1,-1
 221 0 l 1,2,-1
 10 0 l 1,3,-1
 546 732 l 1,4,-1
 51 1409 l 1,5,-1
 262 1409 l 1,6,-1
 654 856 l 1,7,-1
 915 1235 l 1,8,-1
 648 1167 l 1,9,-1
 645 1319 l 1,10,-1
 1035 1409 l 1,11,-1
 1246 1409 l 1,12,-1
 764 739 l 1,13,-1
 1287 0 l 1,14,-1
 1076 0 l 1,15,-1
 673 91 l 1,16,-1
 674 246 l 1,17,-1
 974 172 l 1,0,-1
EndSplineSet
Validated: 1
EndChar

StartChar: u10CAA
Encoding: 59 68778 54
Width: 1492
Flags: W
LayerCount: 2
Fore
SplineSet
340 207 m 1,0,-1
 740 558 l 1,1,-1
 1147 204 l 1,2,-1
 1142 1204 l 1,3,-1
 743 840 l 1,4,-1
 340 1207 l 1,5,-1
 340 207 l 1,0,-1
150 2 m 1,6,-1
 150 1411 l 1,7,-1
 342 1411 l 1,8,-1
 743 1044 l 1,9,-1
 1150 1409 l 1,10,-1
 1342 1411 l 1,11,-1
 1342 2 l 1,12,-1
 1150 -1 l 1,13,-1
 743 374 l 1,14,-1
 342 2 l 1,15,-1
 150 2 l 1,6,-1
EndSplineSet
Validated: 1
EndChar

StartChar: u10CAB
Encoding: 60 68779 55
Width: 1576
Flags: W
LayerCount: 2
Fore
SplineSet
336 1165 m 1,0,-1
 341 224 l 1,1,-1
 678 699 l 1,2,-1
 336 1165 l 1,0,-1
863 699 m 1,3,-1
 1229 234 l 1,4,-1
 1229 1169 l 1,5,-1
 863 699 l 1,3,-1
150 0 m 1,6,-1
 150 1409 l 1,7,-1
 342 1409 l 1,8,-1
 766 807 l 1,9,-1
 1234 1413 l 1,10,-1
 1426 1414 l 1,11,-1
 1426 0 l 1,12,-1
 1234 0 l 1,13,-1
 766 597 l 1,14,-1
 343 0 l 1,15,-1
 150 0 l 1,6,-1
EndSplineSet
Validated: 1
EndChar

StartChar: u10CAC
Encoding: 61 68780 56
Width: 1658
Flags: W
LayerCount: 2
Fore
SplineSet
1162 1165 m 1,0,-1
 1380 1383 l 1,1,-1
 1493 1260 l 1,2,-1
 1252 1027 l 1,3,4
 1349 843 1349 843 1349 694 c 0,5,6
 1349 529 1349 529 1286 403 c 1,7,-1
 1508 146 l 1,8,-1
 1375 7 l 1,9,-1
 1178 256 l 1,10,11
 1087 130 1087 130 955 7 c 1,12,-1
 686 6 l 1,13,14
 693 13 693 13 696 13 c 2,15,-1
 678 13 l 1,16,17
 548 134 548 134 463 248 c 1,18,-1
 274 9 l 1,19,-1
 161 140 l 1,20,-1
 383 393 l 1,21,22
 381 398 381 398 362 436 c 128,-1,23
 343 474 343 474 338.5 484.5 c 128,-1,24
 334 495 334 495 320.5 528.5 c 128,-1,25
 307 562 307 562 302.5 582.5 c 128,-1,26
 298 603 298 603 293 634 c 128,-1,27
 288 665 288 665 288 695 c 0,28,29
 288 752 288 752 305 816 c 128,-1,30
 322 880 322 880 335 909.5 c 128,-1,31
 348 939 348 939 380 1006 c 1,32,-1
 150 1278 l 1,33,-1
 274 1387 l 1,34,-1
 460 1165 l 1,35,36
 529 1264 529 1264 692 1415 c 1,37,-1
 944 1415 l 1,38,39
 939 1409 939 1409 937 1409 c 2,40,-1
 940 1409 l 1,41,42
 1071 1287 1071 1287 1162 1165 c 1,0,-1
820 188 m 1,43,44
 991 335 991 335 1074.5 450.5 c 128,-1,45
 1158 566 1158 566 1158 692 c 0,46,47
 1158 821 1158 821 1070.5 948.5 c 128,-1,48
 983 1076 983 1076 812 1227 c 1,49,50
 647 1080 647 1080 563 953.5 c 128,-1,51
 479 827 479 827 479 699 c 128,-1,52
 479 571 479 571 563 453 c 128,-1,53
 647 335 647 335 820 188 c 1,43,44
EndSplineSet
Validated: 1
EndChar

StartChar: u10CAD
Encoding: 62 68781 57
Width: 1108
Flags: W
LayerCount: 2
Fore
SplineSet
958 7 m 1,0,-1
 766 7 l 1,1,-1
 763 714 l 1,2,-1
 150 426 l 1,3,-1
 150 1409 l 1,4,-1
 342 1409 l 1,5,-1
 342 687 l 1,6,-1
 958 972 l 1,7,-1
 958 7 l 1,0,-1
EndSplineSet
Validated: 1
EndChar

StartChar: u10CAE
Encoding: 63 68782 58
Width: 1444
Flags: W
LayerCount: 2
Fore
SplineSet
341 1409 m 1,0,-1
 700 1026 l 1,1,-1
 1103 1403 l 1,2,-1
 1294 1409 l 1,3,-1
 1294 0 l 1,4,-1
 1103 0 l 1,5,-1
 1103 1189 l 1,6,-1
 704 825 l 1,7,-1
 341 1195 l 1,8,-1
 341 0 l 1,9,-1
 150 0 l 1,10,-1
 150 1409 l 1,11,-1
 341 1409 l 1,0,-1
EndSplineSet
Validated: 1
EndChar

StartChar: u10CAF
Encoding: 64 68783 59
Width: 1444
Flags: W
LayerCount: 2
Fore
SplineSet
1103 1025 m 1,0,-1
 1103 1203 l 1,1,-1
 341 767 l 1,2,-1
 341 591 l 1,3,-1
 1103 1025 l 1,0,-1
1103 863 m 1,4,-1
 341 431 l 1,5,-1
 341 203 l 1,6,-1
 1103 633 l 1,7,-1
 1103 863 l 1,4,-1
1103 1409 m 1,8,-1
 1294 1409 l 1,9,-1
 1294 0 l 1,10,-1
 1103 0 l 1,11,-1
 1103 473 l 1,12,-1
 341 43 l 1,13,-1
 341 0 l 1,14,-1
 150 0 l 1,15,-1
 150 1409 l 1,16,-1
 341 1409 l 1,17,-1
 341 937 l 1,18,-1
 1100 1364 l 1,19,-1
 1103 1409 l 1,8,-1
EndSplineSet
Validated: 1
EndChar

StartChar: u10CB0
Encoding: 65 68784 60
Width: 1436
Flags: W
LayerCount: 2
Fore
SplineSet
813 1409 m 1,0,-1
 814 1043 l 1,1,-1
 1115 1404 l 1,2,-1
 1286 1405 l 1,3,-1
 813 845 l 1,4,-1
 813 0 l 1,5,-1
 622 0 l 1,6,-1
 622 852 l 1,7,-1
 150 1405 l 1,8,-1
 321 1404 l 1,9,-1
 622 1043 l 1,10,-1
 622 1409 l 1,11,-1
 813 1409 l 1,0,-1
EndSplineSet
Validated: 1
EndChar

StartChar: u10CB1
Encoding: 66 68785 61
Width: 1776
Flags: W
LayerCount: 2
Fore
SplineSet
796 1 m 1,0,-1
 483 346 l 1,1,-1
 322 195 l 1,2,-1
 150 195 l 1,3,-1
 482 540 l 1,4,-1
 798 183 l 1,5,-1
 796 481 l 1,6,-1
 483 776 l 1,7,-1
 322 625 l 1,8,-1
 150 625 l 1,9,-1
 482 970 l 1,10,-1
 798 663 l 1,11,-1
 796 921 l 1,12,-1
 483 1221 l 1,13,-1
 322 1060 l 1,14,-1
 150 1060 l 1,15,-1
 482 1405 l 1,16,-1
 798 1098 l 1,17,-1
 797 1410 l 1,18,-1
 988 1410 l 1,19,-1
 985 1098 l 1,20,-1
 1303 1405 l 1,21,-1
 1626 1056 l 1,22,-1
 1454 1056 l 1,23,-1
 1302 1231 l 1,24,-1
 987 921 l 1,25,-1
 979 663 l 1,26,-1
 1303 970 l 1,27,-1
 1626 621 l 1,28,-1
 1454 621 l 1,29,-1
 1302 786 l 1,30,-1
 977 481 l 1,31,-1
 979 183 l 1,32,-1
 1303 540 l 1,33,-1
 1626 191 l 1,34,-1
 1454 191 l 1,35,-1
 1302 356 l 1,36,-1
 987 1 l 1,37,-1
 796 1 l 1,0,-1
EndSplineSet
Validated: 1
EndChar

StartChar: u10CB2
Encoding: 67 68786 62
Width: 1496
Flags: W
LayerCount: 2
Fore
SplineSet
837 203 m 1,0,1
 951 317 951 317 1053 471.5 c 128,-1,2
 1155 626 1155 626 1155 701 c 0,3,4
 1155 795 1155 795 1059 952 c 128,-1,5
 963 1109 963 1109 835 1219 c 1,6,-1
 837 203 l 1,0,1
651 207 m 1,7,-1
 654 1219 l 1,8,9
 531 1107 531 1107 435.5 949.5 c 128,-1,10
 340 792 340 792 340 704 c 0,11,12
 340 633 340 633 441.5 475.5 c 128,-1,13
 543 318 543 318 651 207 c 1,7,-1
668 5 m 1,14,15
 398 198 398 198 274 364 c 128,-1,16
 150 530 150 530 150 714 c 0,17,18
 150 896 150 896 270 1061 c 128,-1,19
 390 1226 390 1226 649 1414 c 1,20,-1
 833 1414 l 1,21,22
 1102 1225 1102 1225 1224 1056.5 c 128,-1,23
 1346 888 1346 888 1346 702 c 0,24,25
 1346 517 1346 517 1225.5 354 c 128,-1,26
 1105 191 1105 191 836 5 c 1,27,-1
 668 5 l 1,14,15
EndSplineSet
Validated: 1
EndChar

StartChar: u10CC0
Encoding: 68 68800 63
Width: 1088
Flags: W
LayerCount: 2
Fore
SplineSet
847 1127 m 1,0,-1
 842 0 l 1,1,-1
 670 0 l 1,2,-1
 670 503 l 1,3,-1
 30 502 l 1,4,-1
 29 618 l 1,5,-1
 675 1127 l 1,6,-1
 847 1127 l 1,0,-1
673 625 m 1,7,-1
 673 974 l 1,8,-1
 227 622 l 1,9,-1
 673 625 l 1,7,-1
EndSplineSet
Validated: 1
EndChar

StartChar: u10CC1
Encoding: 69 68801 64
Width: 1025
Flags: W
LayerCount: 2
Fore
SplineSet
784 1127 m 1,0,-1
 779 0 l 1,1,-1
 608 0 l 1,2,-1
 607 503 l 1,3,-1
 30 742 l 1,4,-1
 29 858 l 1,5,-1
 612 1127 l 1,6,-1
 784 1127 l 1,0,-1
610 625 m 1,7,-1
 610 1006 l 1,8,-1
 191 814 l 1,9,-1
 610 625 l 1,7,-1
EndSplineSet
Validated: 1
EndChar

StartChar: u10CC2
Encoding: 70 68802 65
Width: 1167
Flags: W
LayerCount: 2
Fore
SplineSet
968 0 m 1,0,-1
 588 493 l 1,1,-1
 199 0 l 1,2,-1
 9 0 l 1,3,-1
 491 586 l 1,4,-1
 46 1127 l 1,5,-1
 236 1127 l 1,6,-1
 589 685 l 1,7,-1
 932 1127 l 1,8,-1
 1121 1127 l 1,9,-1
 688 591 l 1,10,-1
 1158 0 l 1,11,-1
 968 0 l 1,0,-1
EndSplineSet
Validated: 1
EndChar

StartChar: u10CC3
Encoding: 71 68803 66
Width: 1583
Flags: W
LayerCount: 2
Fore
SplineSet
1069 89 m 1,0,-1
 1069 123 l 1,1,2
 999 71 999 71 891 4 c 1,3,-1
 740 4 l 1,4,5
 717 19 717 19 681.5 41 c 128,-1,6
 646 63 646 63 625.5 75.5 c 128,-1,7
 605 88 605 88 578.5 106 c 128,-1,8
 552 124 552 124 531 142 c 1,9,-1
 530 112 l 1,10,11
 507 97 507 97 480 66.5 c 128,-1,12
 453 36 453 36 429 17 c 128,-1,13
 405 -2 405 -2 376 -2 c 0,14,15
 363 -2 363 -2 356 0 c 0,16,17
 313 8 313 8 280.5 33.5 c 128,-1,18
 248 59 248 59 232.5 83.5 c 128,-1,19
 217 108 217 108 192 154.5 c 128,-1,20
 167 201 167 201 152 224 c 0,21,22
 148 229 148 229 148 231 c 0,23,24
 148 232 148 232 149 232 c 0,25,26
 153 232 153 232 179 211 c 128,-1,27
 205 190 205 190 238 166 c 128,-1,28
 271 142 271 142 288 136 c 0,29,30
 297 133 297 133 305 133 c 0,31,32
 320 133 320 133 333 141.5 c 128,-1,33
 346 150 346 150 352 159 c 2,34,-1
 358 168 l 1,35,-1
 360 328 l 1,36,37
 274 454 274 454 274 571 c 0,38,39
 274 698 274 698 358 825 c 1,40,-1
 358 983 l 1,41,42
 316 995 316 995 259 997 c 2,43,-1
 258 997 l 2,44,45
 234 997 234 997 190 959 c 128,-1,46
 146 921 146 921 140 921 c 0,47,48
 135 921 135 921 135 930 c 0,49,50
 135 979 135 979 209.5 1069.5 c 128,-1,51
 284 1160 284 1160 334 1160 c 2,52,-1
 335 1160 l 2,53,54
 369 1159 369 1159 401.5 1145 c 128,-1,55
 434 1131 434 1131 456.5 1111 c 128,-1,56
 479 1091 479 1091 496 1071 c 128,-1,57
 513 1051 513 1051 522 1037 c 2,58,-1
 530 1023 l 1,59,-1
 530 991 l 1,60,61
 596 1049 596 1049 723 1131 c 1,62,-1
 888 1131 l 1,63,64
 993 1067 993 1067 1058 1018 c 1,65,-1
 1059 1053 l 2,66,67
 1062 1057 1062 1057 1080.5 1079 c 128,-1,68
 1099 1101 1099 1101 1107 1109.5 c 128,-1,69
 1115 1118 1115 1118 1133 1136 c 128,-1,70
 1151 1154 1151 1154 1163.5 1161.5 c 128,-1,71
 1176 1169 1176 1169 1193.5 1176 c 128,-1,72
 1211 1183 1211 1183 1227 1183 c 0,73,74
 1236 1183 1236 1183 1240 1182 c 0,75,76
 1263 1178 1263 1178 1283.5 1169.5 c 128,-1,77
 1304 1161 1304 1161 1319 1153 c 128,-1,78
 1334 1145 1334 1145 1349.5 1127.5 c 128,-1,79
 1365 1110 1365 1110 1373.5 1100.5 c 128,-1,80
 1382 1091 1382 1091 1395 1067 c 128,-1,81
 1408 1043 1408 1043 1412 1034 c 128,-1,82
 1416 1025 1416 1025 1428.5 997 c 128,-1,83
 1441 969 1441 969 1444 963 c 0,84,85
 1446 960 1446 960 1446 956 c 0,86,87
 1446 954 1446 954 1444 954 c 0,88,89
 1441 954 1441 954 1391.5 992.5 c 128,-1,90
 1342 1031 1342 1031 1319 1034 c 2,91,-1
 1305 1034 l 2,92,93
 1291 1034 1291 1034 1272.5 1031.5 c 128,-1,94
 1254 1029 1254 1029 1243 1026 c 2,95,-1
 1232 1024 l 1,96,-1
 1233 848 l 1,97,98
 1350 697 1350 697 1350 562 c 0,99,100
 1350 423 1350 423 1241 290 c 1,101,-1
 1241 156 l 1,102,103
 1248 150 1248 150 1259 139.5 c 128,-1,104
 1270 129 1270 129 1274.5 124.5 c 128,-1,105
 1279 120 1279 120 1286 116.5 c 128,-1,106
 1293 113 1293 113 1299 113 c 0,107,108
 1310 113 1310 113 1324 123 c 0,109,110
 1341 135 1341 135 1368.5 167 c 128,-1,111
 1396 199 1396 199 1417.5 224 c 128,-1,112
 1439 249 1439 249 1445 249 c 0,113,114
 1448 249 1448 249 1448 246 c 0,115,116
 1448 245 1448 245 1446 237 c 0,117,118
 1440 212 1440 212 1437.5 178 c 128,-1,119
 1435 144 1435 144 1433 120.5 c 128,-1,120
 1431 97 1431 97 1425 73 c 128,-1,121
 1419 49 1419 49 1401.5 30.5 c 128,-1,122
 1384 12 1384 12 1354 0 c 0,123,124
 1340 -6 1340 -6 1315 -6 c 0,125,126
 1271 -6 1271 -6 1209.5 17.5 c 128,-1,127
 1148 41 1148 41 1108 65 c 2,128,-1
 1069 89 l 1,0,-1
803 1017 m 1,129,130
 668 936 668 936 556.5 792 c 128,-1,131
 445 648 445 648 445 563 c 0,132,133
 445 483 445 483 557.5 352 c 128,-1,134
 670 221 670 221 814 126 c 1,135,136
 955 219 955 219 1066.5 349.5 c 128,-1,137
 1178 480 1178 480 1178 561 c 0,138,139
 1178 645 1178 645 1059 790 c 128,-1,140
 940 935 940 935 803 1017 c 1,129,130
EndSplineSet
Validated: 1
EndChar

StartChar: u10CC4
Encoding: 72 68804 67
Width: 1314
Flags: W
LayerCount: 2
Fore
SplineSet
572 983 m 1,0,-1
 338 794 l 1,1,-1
 135 794 l 1,2,-1
 572 1127 l 1,3,-1
 743 1128 l 1,4,-1
 1180 795 l 1,5,-1
 976 795 l 1,6,-1
 743 984 l 1,7,-1
 743 0 l 1,8,-1
 572 0 l 1,9,-1
 572 983 l 1,0,-1
EndSplineSet
Validated: 1
EndChar

StartChar: u10CC5
Encoding: 73 68805 68
Width: 1314
Flags: W
LayerCount: 2
Fore
SplineSet
743 1 m 1,0,-1
 572 1 l 1,1,-1
 135 336 l 1,2,-1
 338 336 l 1,3,-1
 572 147 l 1,4,-1
 572 983 l 1,5,-1
 338 794 l 1,6,-1
 135 794 l 1,7,-1
 572 1127 l 1,8,-1
 743 1128 l 1,9,-1
 1180 795 l 1,10,-1
 976 795 l 1,11,-1
 743 984 l 1,12,-1
 743 146 l 1,13,-1
 976 335 l 1,14,-1
 1180 335 l 1,15,-1
 743 1 l 1,0,-1
EndSplineSet
Validated: 1
EndChar

StartChar: u10CC6
Encoding: 74 68806 69
Width: 1299
Flags: W
LayerCount: 2
Fore
SplineSet
993 506 m 1,0,-1
 993 962 l 1,1,-1
 307 614 l 1,2,-1
 307 162 l 1,3,-1
 993 506 l 1,0,-1
993 1127 m 1,4,-1
 1165 1127 l 1,5,-1
 1165 0 l 1,6,-1
 993 0 l 1,7,-1
 993 378 l 1,8,-1
 307 34 l 1,9,-1
 307 0 l 1,10,-1
 135 0 l 1,11,-1
 135 1127 l 1,12,-1
 307 1127 l 1,13,-1
 307 750 l 1,14,-1
 990 1091 l 1,15,-1
 993 1127 l 1,4,-1
EndSplineSet
Validated: 1
EndChar

StartChar: u10CC7
Encoding: 75 68807 70
Width: 1027
Flags: W
LayerCount: 2
Fore
SplineSet
590 671 m 1,0,-1
 893 840 l 1,1,-1
 893 714 l 1,2,-1
 588 545 l 1,3,-1
 584 0 l 1,4,-1
 412 0 l 1,5,-1
 412 469 l 1,6,-1
 135 314 l 1,7,-1
 135 440 l 1,8,-1
 413 600 l 1,9,-1
 412 1127 l 1,10,-1
 584 1127 l 1,11,-1
 590 671 l 1,0,-1
EndSplineSet
Validated: 1
EndChar

StartChar: u10CC8
Encoding: 76 68808 71
Width: 1140
Flags: W
LayerCount: 2
Fore
SplineSet
674 566 m 1,0,-1
 1131 0 l 1,1,-1
 959 0 l 1,2,-1
 579 493 l 1,3,-1
 190 0 l 1,4,-1
 9 0 l 1,5,-1
 413 500 l 1,6,-1
 57 354 l 1,7,-1
 57 480 l 1,8,-1
 454 628 l 1,9,-1
 46 1127 l 1,10,-1
 227 1127 l 1,11,-1
 580 685 l 1,12,-1
 922 1127 l 1,13,-1
 1094 1127 l 1,14,-1
 778 722 l 1,15,-1
 1102 848 l 1,16,-1
 1102 722 l 1,17,-1
 674 566 l 1,0,-1
EndSplineSet
Validated: 1
EndChar

StartChar: u10CC9
Encoding: 77 68809 72
Width: 988
Flags: W
LayerCount: 2
Fore
SplineSet
159 158 m 1,0,1
 250 158 250 158 275 166 c 0,2,3
 414 205 414 205 454 235 c 1,4,-1
 280 365 l 1,5,-1
 380 455 l 1,6,-1
 553 327 l 1,7,8
 584 368 584 368 592.5 379 c 128,-1,9
 601 390 601 390 621.5 421.5 c 128,-1,10
 642 453 642 453 647.5 471 c 128,-1,11
 653 489 653 489 659.5 518.5 c 128,-1,12
 666 548 666 548 666 581 c 0,13,14
 666 707 666 707 562 826 c 1,15,-1
 385 691 l 1,16,-1
 280 781 l 1,17,-1
 454 911 l 1,18,19
 380 960 380 960 275 972 c 0,20,21
 223 978 223 978 168 978 c 2,22,-1
 144 978 l 1,23,-1
 135 1131 l 1,24,25
 312 1123 312 1123 339 1117 c 0,26,27
 462 1089 462 1089 573 1010 c 1,28,-1
 732 1135 l 1,29,-1
 846 1046 l 1,30,-1
 698 926 l 1,31,32
 838 766 838 766 839 573 c 2,33,-1
 839 567 l 2,34,35
 839 492 839 492 821.5 434.5 c 128,-1,36
 804 377 804 377 777.5 337 c 128,-1,37
 751 297 751 297 696 232 c 1,38,-1
 853 110 l 1,39,-1
 744 10 l 1,40,-1
 593 130 l 1,41,42
 486 55 486 55 339 18 c 0,43,44
 297 7 297 7 168 4 c 1,45,-1
 159 158 l 1,0,1
EndSplineSet
Validated: 1
EndChar

StartChar: u10CCA
Encoding: 78 68810 73
Width: 1464
Flags: W
LayerCount: 2
Fore
SplineSet
745 254 m 1,0,1
 915 356 915 356 998 428.5 c 128,-1,2
 1081 501 1081 501 1081 558 c 0,3,4
 1081 621 1081 621 992.5 697.5 c 128,-1,5
 904 774 904 774 722 878 c 1,6,7
 565 778 565 778 488.5 704 c 128,-1,8
 412 630 412 630 412 571 c 0,9,10
 412 508 412 508 494.5 431.5 c 128,-1,11
 577 355 577 355 745 254 c 1,0,1
736 114 m 1,12,13
 688 101 688 101 573.5 58 c 128,-1,14
 459 15 459 15 411 2 c 1,15,-1
 135 2 l 1,16,17
 137 9 137 9 137 30 c 0,18,19
 137 41 137 41 136.5 63 c 128,-1,20
 136 85 136 85 136 95 c 2,21,-1
 136 109 l 1,22,23
 179 99 179 99 242 99 c 0,24,25
 313 99 313 99 334 108 c 0,26,27
 376 125 376 125 454 144.5 c 128,-1,28
 532 164 532 164 568 182 c 1,29,30
 395 294 395 294 317 382 c 128,-1,31
 239 470 239 470 239 570 c 0,32,33
 239 669 239 669 315 754 c 128,-1,34
 391 839 391 839 560 947 c 1,35,36
 524 967 524 967 460.5 988 c 128,-1,37
 397 1009 397 1009 334 1016 c 0,38,39
 318 1018 318 1018 287 1018 c 0,40,41
 268 1018 268 1018 228 1016 c 128,-1,42
 188 1014 188 1014 165 1014 c 2,43,-1
 145 1014 l 1,44,45
 145 1021 145 1021 144.5 1049.5 c 128,-1,46
 144 1078 144 1078 142 1099 c 128,-1,47
 140 1120 140 1120 135 1129 c 1,48,-1
 412 1129 l 1,49,50
 480 1106 480 1106 549 1077.5 c 128,-1,51
 618 1049 618 1049 661.5 1029.5 c 128,-1,52
 705 1010 705 1010 710 1008 c 0,53,54
 761 1023 761 1023 878 1068.5 c 128,-1,55
 995 1114 995 1114 1044 1129 c 1,56,-1
 1329 1129 l 1,57,58
 1327 1117 1327 1117 1326.5 1089.5 c 128,-1,59
 1326 1062 1326 1062 1325.5 1042 c 128,-1,60
 1325 1022 1325 1022 1324 1022 c 2,61,-1
 1324 1023 l 1,62,63
 1304 1021 1304 1021 1268 1021 c 0,64,65
 1241 1021 1241 1021 1206 1023.5 c 128,-1,66
 1171 1026 1171 1026 1163 1026 c 0,67,68
 1150 1026 1150 1026 1144 1023 c 0,69,70
 968 993 968 993 876 944 c 1,71,72
 1074 835 1074 835 1163.5 746.5 c 128,-1,73
 1253 658 1253 658 1253 554 c 0,74,75
 1253 458 1253 458 1176.5 373 c 128,-1,76
 1100 288 1100 288 928 178 c 1,77,78
 955 162 955 162 1012.5 141.5 c 128,-1,79
 1070 121 1070 121 1094 110 c 0,80,81
 1117 99 1117 99 1208 99 c 0,82,83
 1212 99 1212 99 1320 102 c 1,84,85
 1322 89 1322 89 1322 64 c 0,86,87
 1322 50 1322 50 1321 30.5 c 128,-1,88
 1320 11 1320 11 1320 6 c 2,89,-1
 1320 2 l 1,90,-1
 1044 2 l 1,91,92
 1008 13 1008 13 972 25 c 128,-1,93
 936 37 936 37 907.5 47.5 c 128,-1,94
 879 58 879 58 853.5 68.5 c 128,-1,95
 828 79 828 79 809.5 87 c 128,-1,96
 791 95 791 95 777 101 c 128,-1,97
 763 107 763 107 756 110 c 2,98,-1
 749 114 l 1,99,-1
 736 114 l 1,12,13
EndSplineSet
Validated: 1
EndChar

StartChar: u10CCB
Encoding: 79 68811 74
Width: 936
Flags: W
LayerCount: 2
Fore
SplineSet
141 218 m 1,0,1
 373 285 373 285 481.5 350.5 c 128,-1,2
 590 416 590 416 590 496 c 2,3,-1
 590 582 l 2,4,5
 590 700 590 700 502 773.5 c 128,-1,6
 414 847 414 847 227 898 c 1,7,-1
 139 914 l 1,8,-1
 135 1018 l 1,9,-1
 496 1128 l 1,10,-1
 678 1127 l 1,11,-1
 680 1044 l 1,12,-1
 364 982 l 1,13,14
 566 907 566 907 683.5 794 c 128,-1,15
 801 681 801 681 801 554 c 0,16,17
 801 471 801 471 693.5 376.5 c 128,-1,18
 586 282 586 282 382 167 c 1,19,-1
 691 83 l 1,20,-1
 689 0 l 1,21,-1
 508 1 l 1,22,-1
 144 114 l 1,23,-1
 141 218 l 1,0,1
EndSplineSet
Validated: 1
EndChar

StartChar: u10CCC
Encoding: 80 68812 75
Width: 1346
Flags: W
LayerCount: 2
Fore
SplineSet
653 483 m 1,0,-1
 463 266 l 1,1,2
 494 233 494 233 525.5 212.5 c 128,-1,3
 557 192 557 192 600 170 c 128,-1,4
 643 148 643 148 676 126 c 1,5,6
 764 183 764 183 864 281 c 1,7,-1
 653 483 l 1,0,-1
583 545 m 1,8,-1
 357 737 l 1,9,10
 305 658 305 658 305 583 c 0,11,12
 305 580 305 580 305.5 573 c 128,-1,13
 306 566 306 566 306 563 c 0,14,15
 310 489 310 489 326 440.5 c 128,-1,16
 342 392 342 392 381 350 c 1,17,-1
 583 545 l 1,8,-1
641 620 m 1,18,-1
 879 844 l 1,19,20
 790 943 790 943 664 1017 c 1,21,22
 609 984 609 984 536.5 926.5 c 128,-1,23
 464 869 464 869 416 819 c 1,24,-1
 641 620 l 1,18,-1
724 539 m 1,25,-1
 940 354 l 1,26,27
 947 364 947 364 968 390.5 c 128,-1,28
 989 417 989 417 997 429.5 c 128,-1,29
 1005 442 1005 442 1017.5 464.5 c 128,-1,30
 1030 487 1030 487 1035 509.5 c 128,-1,31
 1040 532 1040 532 1040 559 c 0,32,33
 1040 602 1040 602 1023 644.5 c 128,-1,34
 1006 687 1006 687 990 708 c 128,-1,35
 974 729 974 729 950 756 c 1,36,-1
 724 539 l 1,25,-1
601 4 m 1,37,38
 358 158 358 158 246.5 290.5 c 128,-1,39
 135 423 135 423 135 571 c 0,40,41
 135 717 135 717 242.5 848.5 c 128,-1,42
 350 980 350 980 584 1131 c 1,43,-1
 750 1131 l 1,44,45
 992 979 992 979 1101.5 845 c 128,-1,46
 1211 711 1211 711 1211 562 c 0,47,48
 1211 414 1211 414 1102.5 283.5 c 128,-1,49
 994 153 994 153 752 4 c 1,50,-1
 601 4 l 1,37,38
EndSplineSet
Validated: 1
EndChar

StartChar: u10CCD
Encoding: 81 68813 76
Width: 1240
Flags: W
LayerCount: 2
Fore
SplineSet
777 650 m 1,0,-1
 622 1012 l 1,1,-1
 187 0 l 1,2,-1
 9 0 l 1,3,-1
 526 1127 l 1,4,-1
 722 1127 l 1,5,-1
 1231 0 l 1,6,-1
 1056 0 l 1,7,-1
 846 476 l 1,8,-1
 631 0 l 1,9,10
 631 0 631 0 457 0 c 1,11,-1
 777 650 l 1,0,-1
EndSplineSet
Validated: 1
EndChar

StartChar: u10CCE
Encoding: 82 68814 77
Width: 1027
Flags: W
LayerCount: 2
Fore
SplineSet
589 655 m 1,0,-1
 590 439 l 1,1,-1
 893 608 l 1,2,-1
 893 482 l 1,3,-1
 588 313 l 1,4,-1
 584 0 l 1,5,-1
 412 0 l 1,6,-1
 412 237 l 1,7,-1
 135 82 l 1,8,-1
 135 208 l 1,9,-1
 413 368 l 1,10,-1
 413 582 l 1,11,-1
 135 426 l 1,12,-1
 135 552 l 1,13,-1
 412 713 l 1,14,-1
 412 1127 l 1,15,-1
 584 1127 l 1,16,-1
 586 783 l 1,17,-1
 893 952 l 1,18,-1
 893 826 l 1,19,-1
 589 655 l 1,0,-1
EndSplineSet
Validated: 1
EndChar

StartChar: u10CCF
Encoding: 83 68815 78
Width: 1127
Flags: W
LayerCount: 2
Fore
SplineSet
921 2 m 1,0,-1
 573 238 l 1,1,-1
 211 2 l 1,2,-1
 136 2 l 1,3,-1
 135 72 l 1,4,-1
 482 303 l 1,5,-1
 186 510 l 1,6,-1
 182 630 l 1,7,-1
 472 790 l 1,8,-1
 138 992 l 1,9,-1
 138 1124 l 1,10,-1
 193 1124 l 1,11,-1
 578 856 l 1,12,-1
 948 1124 l 1,13,-1
 985 1123 l 1,14,-1
 988 993 l 1,15,-1
 684 798 l 1,16,-1
 981 629 l 1,17,-1
 985 508 l 1,18,-1
 666 304 l 1,19,-1
 988 76 l 1,20,-1
 993 1 l 1,21,-1
 921 2 l 1,0,-1
848 564 m 1,22,-1
 577 729 l 1,23,-1
 316 560 l 1,24,-1
 577 378 l 1,25,-1
 848 564 l 1,22,-1
EndSplineSet
Validated: 1
EndChar

StartChar: u10CD0
Encoding: 84 68816 79
Width: 1027
Flags: W
LayerCount: 2
Fore
SplineSet
590 967 m 1,0,-1
 893 1136 l 1,1,-1
 893 1010 l 1,2,-1
 588 841 l 1,3,-1
 584 0 l 1,4,-1
 412 0 l 1,5,-1
 412 765 l 1,6,-1
 135 610 l 1,7,-1
 135 736 l 1,8,-1
 413 896 l 1,9,-1
 412 1127 l 1,10,-1
 584 1127 l 1,11,-1
 590 967 l 1,0,-1
EndSplineSet
Validated: 1
EndChar

StartChar: u10CD1
Encoding: 85 68817 80
Width: 1027
Flags: W
LayerCount: 2
Fore
SplineSet
890 1144 m 1,0,-1
 893 1010 l 1,1,-1
 588 841 l 1,2,-1
 584 0 l 1,3,-1
 412 0 l 1,4,-1
 412 765 l 1,5,-1
 135 610 l 1,6,-1
 135 736 l 1,7,-1
 890 1144 l 1,0,-1
EndSplineSet
Validated: 1
EndChar

StartChar: u10CD2
Encoding: 86 68818 81
Width: 857
Flags: W
LayerCount: 2
Fore
SplineSet
135 840 m 1,0,-1
 547 1127 l 1,1,-1
 723 1129 l 1,2,-1
 719 1 l 1,3,-1
 547 1 l 1,4,-1
 547 989 l 1,5,-1
 135 706 l 1,6,-1
 135 840 l 1,0,-1
EndSplineSet
Validated: 1
EndChar

StartChar: u10CD3
Encoding: 87 68819 82
Width: 945
Flags: W
LayerCount: 2
Fore
SplineSet
456 122 m 1,0,-1
 756 574 l 1,1,-1
 456 1006 l 1,2,-1
 164 570 l 1,3,-1
 456 122 l 1,0,-1
544 4 m 1,4,-1
 372 3 l 1,5,-1
 -9 569 l 1,6,-1
 366 1130 l 1,7,-1
 538 1131 l 1,8,-1
 928 574 l 1,9,-1
 544 4 l 1,4,-1
EndSplineSet
Validated: 1
EndChar

StartChar: u10CD4
Encoding: 88 68820 83
Width: 1323
Flags: W
LayerCount: 2
Fore
SplineSet
1189 530 m 1,0,-1
 766 1 l 1,1,-1
 605 2 l 1,2,-1
 594 965 l 1,3,-1
 307 634 l 1,4,-1
 135 634 l 1,5,-1
 598 1129 l 1,6,-1
 760 1128 l 1,7,-1
 760 162 l 1,8,-1
 1017 528 l 1,9,-1
 1189 530 l 1,0,-1
EndSplineSet
Validated: 1
EndChar

StartChar: u10CD5
Encoding: 89 68821 84
Width: 1199
Flags: W
LayerCount: 2
Fore
SplineSet
248 109 m 1,0,-1
 517 599 l 1,1,-1
 298 1015 l 1,2,-1
 9 755 l 1,3,-1
 9 903 l 1,4,-1
 233 1127 l 1,5,-1
 383 1127 l 1,6,-1
 608 685 l 1,7,-1
 835 1129 l 1,8,-1
 986 1129 l 1,9,-1
 1182 947 l 1,10,-1
 1191 791 l 1,11,-1
 919 1036 l 1,12,-1
 688 598 l 1,13,-1
 933 118 l 1,14,-1
 1189 434 l 1,15,-1
 1191 222 l 1,16,-1
 1014 2 l 1,17,-1
 864 2 l 1,18,-1
 595 510 l 1,19,-1
 323 2 l 1,20,-1
 172 2 l 1,21,-1
 9 214 l 1,22,-1
 9 390 l 1,23,-1
 248 109 l 1,0,-1
EndSplineSet
Validated: 1
EndChar

StartChar: u10CD6
Encoding: 90 68822 85
Width: 1618
Flags: W
LayerCount: 2
Fore
SplineSet
802 1012 m 1,0,-1
 187 0 l 1,1,-1
 9 0 l 1,2,-1
 706 1127 l 1,3,-1
 902 1127 l 1,4,-1
 1609 0 l 1,5,-1
 1431 0 l 1,6,-1
 1233 308 l 1,7,-1
 1032 0 l 1,8,-1
 854 0 l 1,9,-1
 1154 450 l 1,10,-1
 1047 621 l 1,11,-1
 631 0 l 1,12,-1
 453 0 l 1,13,-1
 946 779 l 1,14,-1
 802 1012 l 1,0,-1
EndSplineSet
Validated: 1
EndChar

StartChar: u10CD7
Encoding: 91 68823 86
Width: 1346
Flags: W
LayerCount: 2
Fore
SplineSet
724 697 m 1,0,-1
 806 626 l 1,1,-1
 463 306 l 1,2,3
 515 250 515 250 562 210.5 c 128,-1,4
 609 171 609 171 676 126 c 1,5,6
 810 214 810 214 917.5 345 c 128,-1,7
 1025 476 1025 476 1040 561 c 1,8,-1
 1040 570 l 2,9,10
 1040 642 1040 642 932 788 c 0,11,12
 870 869 870 869 805.5 920.5 c 128,-1,13
 741 972 741 972 664 1017 c 1,14,15
 532 938 532 938 417 805 c 128,-1,16
 302 672 302 672 302 588 c 0,17,18
 302 572 302 572 306 563 c 0,19,20
 307 561 307 561 312.5 542.5 c 128,-1,21
 318 524 318 524 319 520.5 c 128,-1,22
 320 517 320 517 325.5 501.5 c 128,-1,23
 331 486 331 486 334 480.5 c 128,-1,24
 337 475 337 475 343.5 461.5 c 128,-1,25
 350 448 350 448 356 440 c 128,-1,26
 362 432 362 432 371 420.5 c 128,-1,27
 380 409 380 409 390 398 c 1,28,-1
 724 697 l 1,0,-1
601 4 m 1,29,30
 358 158 358 158 246.5 290.5 c 128,-1,31
 135 423 135 423 135 571 c 0,32,33
 135 717 135 717 242.5 848.5 c 128,-1,34
 350 980 350 980 584 1131 c 1,35,-1
 750 1131 l 1,36,37
 992 979 992 979 1101.5 845 c 128,-1,38
 1211 711 1211 711 1211 562 c 0,39,40
 1211 414 1211 414 1102.5 283.5 c 128,-1,41
 994 153 994 153 752 4 c 1,42,-1
 601 4 l 1,29,30
EndSplineSet
Validated: 1
EndChar

StartChar: u10CD8
Encoding: 92 68824 87
Width: 998
Flags: W
LayerCount: 2
Fore
SplineSet
687 -1 m 1,0,-1
 136 206 l 1,1,-1
 136 335 l 1,2,-1
 596 545 l 1,3,-1
 136 750 l 1,4,-1
 135 866 l 1,5,-1
 691 1127 l 1,6,-1
 863 1127 l 1,7,-1
 859 0 l 1,8,-1
 687 -1 l 1,0,-1
687 115 m 1,9,-1
 686 463 l 1,10,-1
 281 274 l 1,11,-1
 687 115 l 1,9,-1
689 625 m 1,12,-1
 689 1006 l 1,13,-1
 270 814 l 1,14,-1
 689 625 l 1,12,-1
EndSplineSet
Validated: 1
EndChar

StartChar: u10CD9
Encoding: 93 68825 88
Width: 820
Flags: W
LayerCount: 2
Fore
SplineSet
135 151 m 1,0,1
 221 160 221 160 245 168 c 0,2,3
 400 213 400 213 495 311 c 0,4,5
 572 390 572 390 604.5 446 c 128,-1,6
 637 502 637 502 638 582 c 0,7,8
 638 710 638 710 495 835 c 0,9,10
 414 907 414 907 245 954 c 0,11,12
 176 974 176 974 146 974 c 1,13,-1
 135 1127 l 1,14,15
 216 1124 216 1124 306 1105 c 0,16,17
 497 1060 497 1060 608 961 c 0,18,19
 713 868 713 868 762.5 778.5 c 128,-1,20
 812 689 812 689 812 585 c 0,21,22
 812 477 812 477 765 390.5 c 128,-1,23
 718 304 718 304 608 187 c 0,24,25
 501 71 501 71 312 26 c 0,26,27
 224 5 224 5 135 0 c 1,28,-1
 135 151 l 1,0,1
EndSplineSet
Validated: 1
EndChar

StartChar: u10CDA
Encoding: 94 68826 89
Width: 940
Flags: W
LayerCount: 2
Fore
SplineSet
282 2 m 1,0,-1
 135 2 l 1,1,-1
 135 1130 l 1,2,-1
 282 1130 l 1,3,4
 386 1121 386 1121 472 1103 c 0,5,6
 655 1064 655 1064 770 961 c 0,7,8
 854 887 854 887 893 813.5 c 128,-1,9
 932 740 932 740 932 638 c 2,10,-1
 932 606 l 1,11,-1
 932 598 l 2,12,13
 932 465 932 465 893.5 373 c 128,-1,14
 855 281 855 281 773 198 c 0,15,16
 656 80 656 80 474 38 c 1,17,18
 382 9 382 9 282 2 c 1,0,-1
307 154 m 1,19,20
 345 157 345 157 418 178 c 0,21,22
 572 222 572 222 643 296 c 0,23,24
 703 358 703 358 731 427.5 c 128,-1,25
 759 497 759 497 759 594 c 0,26,27
 759 753 759 753 643 854 c 0,28,29
 564 923 564 923 418 957 c 0,30,31
 340 975 340 975 307 977 c 1,32,-1
 307 154 l 1,19,20
EndSplineSet
Validated: 1
EndChar

StartChar: u10CDB
Encoding: 95 68827 90
Width: 1259
Flags: W
LayerCount: 2
Fore
SplineSet
450 158 m 1,0,1
 521 164 521 164 560 175 c 0,2,3
 625 194 625 194 663 207 c 128,-1,4
 701 220 701 220 749 245.5 c 128,-1,5
 797 271 797 271 827 302 c 0,6,7
 951 427 951 427 951 572 c 2,8,-1
 951 573 l 1,9,-1
 951 574 l 2,10,11
 951 665 951 665 922 732.5 c 128,-1,12
 893 800 893 800 827 858 c 0,13,14
 800 882 800 882 749.5 903.5 c 128,-1,15
 699 925 699 925 670 933 c 128,-1,16
 641 941 641 941 560 962 c 0,17,18
 513 974 513 974 471 974 c 2,19,-1
 463 974 l 1,20,-1
 459 974 l 2,21,22
 457 973 457 973 456 975 c 128,-1,23
 455 977 455 977 455 982 c 2,24,-1
 308 789 l 1,25,-1
 135 790 l 1,26,-1
 351 1128 l 1,27,28
 577 1114 577 1114 620 1106 c 0,29,30
 832 1058 832 1058 931 970 c 0,31,32
 1033 878 1033 878 1078.5 786 c 128,-1,33
 1124 694 1124 694 1124 574 c 2,34,-1
 1124 573 l 2,35,36
 1124 474 1124 474 1078 379.5 c 128,-1,37
 1032 285 1032 285 931 178 c 0,38,39
 837 78 837 78 626 34 c 0,40,41
 517 11 517 11 352 1 c 1,42,-1
 153 325 l 1,43,-1
 328 326 l 1,44,-1
 450 158 l 1,0,1
EndSplineSet
Validated: 1
EndChar

StartChar: u10CDC
Encoding: 96 68828 91
Width: 1268
Flags: W
LayerCount: 2
Fore
SplineSet
459 160 m 2,0,1
 463 161 463 161 473 161 c 0,2,3
 477 161 477 161 486.5 160.5 c 128,-1,4
 496 160 496 160 502 160 c 0,5,6
 537 160 537 160 569 169 c 0,7,8
 745 221 745 221 827 304 c 0,9,10
 960 438 960 438 960 606 c 0,11,12
 960 745 960 745 827 862 c 0,13,14
 793 893 793 893 738.5 913 c 128,-1,15
 684 933 684 933 592 959 c 0,16,17
 587 960 587 960 584 961 c 128,-1,18
 581 962 581 962 577 963 c 128,-1,19
 573 964 573 964 569 965 c 0,20,21
 525 977 525 977 480 977 c 2,22,-1
 470 977 l 1,23,-1
 455 977 l 1,24,-1
 317 824 l 1,25,-1
 144 826 l 1,26,-1
 360 1131 l 1,27,28
 586 1117 586 1117 629 1109 c 0,29,30
 819 1067 819 1067 931 966 c 0,31,32
 1037 871 1037 871 1085 789.5 c 128,-1,33
 1133 708 1133 708 1133 606 c 0,34,35
 1133 495 1133 495 1085 401.5 c 128,-1,36
 1037 308 1037 308 931 196 c 0,37,38
 815 73 815 73 635 35 c 0,39,40
 539 15 539 15 361 4 c 1,41,-1
 135 366 l 1,42,-1
 576 558 l 1,43,-1
 644 431 l 1,44,-1
 373 319 l 1,45,-1
 459 160 l 2,0,1
EndSplineSet
Validated: 1
EndChar

StartChar: u10CDD
Encoding: 97 68829 92
Width: 802
Flags: W
LayerCount: 2
Fore
SplineSet
260 1127 m 1,0,-1
 658 809 l 1,1,-1
 308 368 l 1,2,-1
 668 98 l 1,3,-1
 588 -3 l 1,4,-1
 135 364 l 1,5,-1
 484 801 l 1,6,-1
 180 1042 l 1,7,-1
 260 1127 l 1,0,-1
EndSplineSet
Validated: 1
EndChar

StartChar: u10CDE
Encoding: 98 68830 93
Width: 949
Flags: W
LayerCount: 2
Fore
SplineSet
307 698 m 1,0,-1
 666 1127 l 1,1,-1
 868 1127 l 1,2,-1
 418 638 l 1,3,-1
 940 0 l 1,4,-1
 727 0 l 1,5,-1
 307 544 l 1,6,-1
 307 0 l 1,7,-1
 135 0 l 1,8,-1
 135 1127 l 1,9,-1
 307 1127 l 1,10,-1
 307 698 l 1,0,-1
EndSplineSet
Validated: 1
EndChar

StartChar: u10CDF
Encoding: 99 68831 94
Width: 1311
Flags: W
LayerCount: 2
Fore
SplineSet
766 901 m 0,0,1
 728 919 728 919 569 965 c 0,2,3
 525 977 525 977 480 977 c 2,4,5
 480 977 480 977 470 977 c 2,6,7
 470 977 470 977 455 977 c 1,8,-1
 317 824 l 1,9,-1
 144 826 l 1,10,-1
 360 1131 l 1,11,12
 586 1117 586 1117 629 1109 c 0,13,14
 780 1076 780 1076 885 1002 c 1,15,16
 885 1002 885 1002 886 1002 c 0,17,18
 896 1002 896 1002 934.5 1040 c 128,-1,19
 973 1078 973 1078 1006 1116 c 2,20,-1
 1040 1154 l 1,21,-1
 1149 1070 l 1,22,23
 1002 912 1002 912 1002 902 c 1,24,-1
 1003 902 l 1,25,26
 1049 859 1049 859 1075 827.5 c 128,-1,27
 1101 796 1101 796 1114 760 c 128,-1,28
 1127 724 1127 724 1130 693.5 c 128,-1,29
 1133 663 1133 663 1133 606 c 0,30,31
 1133 505 1133 505 1106.5 432 c 128,-1,32
 1080 359 1080 359 1007 273 c 0,33,34
 1006 272 1006 272 1006 270 c 0,35,36
 1006 258 1006 258 1048.5 219 c 128,-1,37
 1091 180 1091 180 1134 147 c 2,38,-1
 1176 114 l 1,39,-1
 1070 26 l 1,40,41
 921 166 921 166 901 166 c 1,42,-1
 899 165 l 1,43,44
 792 68 792 68 635 35 c 0,45,46
 539 15 539 15 361 4 c 1,47,-1
 135 366 l 1,48,-1
 576 558 l 1,49,-1
 644 431 l 1,50,-1
 373 319 l 1,51,-1
 459 160 l 2,52,53
 463 161 463 161 473 161 c 0,54,55
 477 161 477 161 486.5 160.5 c 128,-1,56
 496 160 496 160 502 160 c 0,57,58
 537 160 537 160 569 169 c 0,59,60
 718 214 718 214 798 278 c 0,61,62
 799 278 799 278 799 279 c 0,63,64
 799 285 799 285 773.5 309.5 c 128,-1,65
 748 334 748 334 723 356 c 2,66,-1
 698 377 l 1,67,-1
 788 470 l 1,68,-1
 885 396 l 1,69,70
 899 370 899 370 914 370 c 0,71,72
 922 370 922 370 928 380 c 0,73,74
 996 482 996 482 996 598 c 0,75,76
 996 678 996 678 985.5 702 c 128,-1,77
 975 726 975 726 918 780 c 1,78,-1
 900 804 l 1,79,80
 895 804 895 804 868 776.5 c 128,-1,81
 841 749 841 749 816 722 c 2,82,-1
 791 694 l 1,83,-1
 680 793 l 1,84,85
 770 872 770 872 770 895 c 0,86,87
 770 900 770 900 766 901 c 0,0,1
EndSplineSet
Validated: 1
EndChar

StartChar: u10CE0
Encoding: 100 68832 95
Width: 1128
Flags: W
LayerCount: 2
Fore
SplineSet
822 1127 m 1,0,-1
 994 1127 l 1,1,-1
 994 0 l 1,2,-1
 822 0 l 1,3,-1
 822 346 l 1,4,-1
 136 2 l 1,5,-1
 136 130 l 1,6,-1
 822 474 l 1,7,-1
 822 674 l 1,8,-1
 136 329 l 1,9,-1
 135 457 l 1,10,-1
 822 804 l 1,11,-1
 822 986 l 1,12,-1
 136 638 l 1,13,-1
 136 774 l 1,14,-1
 822 1127 l 1,0,-1
EndSplineSet
Validated: 1
EndChar

StartChar: u10CE1
Encoding: 101 68833 96
Width: 1728
Flags: W
LayerCount: 2
Fore
SplineSet
831 1017 m 1,0,1
 696 936 696 936 584 792 c 128,-1,2
 472 648 472 648 472 563 c 0,3,4
 472 483 472 483 585 352 c 128,-1,5
 698 221 698 221 842 126 c 1,6,7
 983 219 983 219 1094.5 349.5 c 128,-1,8
 1206 480 1206 480 1206 561 c 0,9,10
 1206 645 1206 645 1087 790 c 128,-1,11
 968 935 968 935 831 1017 c 1,0,1
1256 253 m 1,12,-1
 1256 251 l 2,13,14
 1256 239 1256 239 1315.5 176 c 128,-1,15
 1375 113 1375 113 1434 56 c 2,16,-1
 1494 0 l 1,17,-1
 1322 0 l 1,18,19
 1188 146 1188 146 1161 146 c 2,20,-1
 1158 146 l 1,21,22
 1120 112 1120 112 1032.5 66 c 128,-1,23
 945 20 945 20 919 4 c 1,24,-1
 768 4 l 1,25,26
 692 51 692 51 571 144 c 0,27,28
 570 145 570 145 567 145 c 0,29,30
 554 145 554 145 514 108.5 c 128,-1,31
 474 72 474 72 440 36 c 2,32,-1
 407 0 l 1,33,-1
 235 0 l 1,34,35
 471 213 471 213 471 234 c 1,36,-1
 470 234 l 1,37,38
 409 301 409 301 363 375 c 128,-1,39
 317 449 317 449 307 508 c 0,40,41
 307 510 307 510 303 510 c 0,42,43
 292 510 292 510 250 483 c 128,-1,44
 208 456 208 456 172 429 c 2,45,-1
 135 402 l 1,46,-1
 135 527 l 1,47,48
 305 630 305 630 312 658 c 0,49,50
 331 735 331 735 389 806.5 c 128,-1,51
 447 878 447 878 552 964 c 1,52,53
 547 965 547 965 547 967 c 0,54,55
 547 972 547 972 569.5 984 c 128,-1,56
 592 996 592 996 616.5 1007 c 128,-1,57
 641 1018 641 1018 643 1020 c 2,58,-1
 518 973 l 1,59,-1
 446 941 l 1,60,-1
 260 858 l 1,61,-1
 260 961 l 1,62,63
 801 1125 801 1125 821 1138 c 1,64,65
 831 1133 831 1133 981.5 1092.5 c 128,-1,66
 1132 1052 1132 1052 1278 1014 c 2,67,-1
 1424 977 l 1,68,-1
 1424 874 l 1,69,70
 1217 955 1217 955 1215 955 c 2,71,-1
 1017 1019 l 1,72,73
 1179 905 1179 905 1262.5 831 c 128,-1,74
 1346 757 1346 757 1375 681 c 0,75,76
 1381 665 1381 665 1436 626 c 128,-1,77
 1491 587 1491 587 1542 556 c 2,78,-1
 1594 526 l 1,79,-1
 1591 401 l 1,80,81
 1415 518 1415 518 1385 518 c 0,82,83
 1381 518 1381 518 1381 516 c 0,84,85
 1370 456 1370 456 1336 382.5 c 128,-1,86
 1302 309 1302 309 1256 253 c 1,12,-1
EndSplineSet
Validated: 1
EndChar

StartChar: u10CE2
Encoding: 102 68834 97
Width: 1299
Flags: W
LayerCount: 2
Fore
SplineSet
993 0 m 1,0,-1
 993 690 l 1,1,-1
 307 346 l 1,2,-1
 307 0 l 1,3,-1
 135 0 l 1,4,-1
 135 1127 l 1,5,-1
 307 1127 l 1,6,-1
 307 474 l 1,7,-1
 993 818 l 1,8,-1
 993 1127 l 1,9,-1
 1165 1127 l 1,10,-1
 1165 0 l 1,11,-1
 993 0 l 1,0,-1
EndSplineSet
Validated: 1
EndChar

StartChar: u10CE3
Encoding: 103 68835 98
Width: 955
Flags: W
LayerCount: 2
Fore
SplineSet
821 816 m 1,0,-1
 821 690 l 1,1,-1
 135 346 l 1,2,-1
 135 472 l 1,3,-1
 821 816 l 1,0,-1
EndSplineSet
Validated: 1
EndChar

StartChar: u10CE4
Encoding: 104 68836 99
Width: 1240
Flags: W
LayerCount: 2
Fore
SplineSet
863 444 m 1,0,-1
 697 821 l 2,1,2
 672 874 672 874 646 946 c 2,3,-1
 622 1012 l 1,4,-1
 614 990 l 2,5,6
 590 918 590 918 547 819 c 2,7,-1
 331 329 l 1,8,-1
 187 0 l 1,9,-1
 9 0 l 1,10,-1
 526 1127 l 1,11,-1
 722 1127 l 1,12,-1
 1231 0 l 1,13,-1
 1056 0 l 1,14,-1
 863 444 l 1,0,-1
EndSplineSet
Validated: 1
EndChar

StartChar: u10CE5
Encoding: 105 68837 100
Width: 441
Flags: W
LayerCount: 2
Fore
SplineSet
135 0 m 1,0,-1
 135 1127 l 1,1,-1
 307 1127 l 1,2,-1
 307 0 l 1,3,-1
 135 0 l 1,0,-1
EndSplineSet
Validated: 1
EndChar

StartChar: u10CE6
Encoding: 106 68838 101
Width: 866
Flags: W
LayerCount: 2
Fore
SplineSet
434 794 m 1,0,-1
 434 1127 l 1,1,-1
 606 1127 l 1,2,-1
 606 0 l 1,3,-1
 434 0 l 1,4,-1
 434 626 l 1,5,-1
 9 1124 l 1,6,-1
 163 1123 l 1,7,-1
 434 794 l 1,0,-1
EndSplineSet
Validated: 1
EndChar

StartChar: u10CE7
Encoding: 107 68839 102
Width: 1598
Flags: W
LayerCount: 2
Fore
SplineSet
290 772 m 1,0,-1
 135 772 l 1,1,-1
 434 1128 l 1,2,-1
 718 802 l 1,3,-1
 717 1132 l 1,4,-1
 889 1132 l 1,5,-1
 890 802 l 1,6,-1
 1173 1128 l 1,7,-1
 1463 769 l 1,8,-1
 1309 769 l 1,9,-1
 1172 941 l 1,10,-1
 888 657 l 1,11,-1
 896 5 l 1,12,-1
 724 5 l 1,13,-1
 716 657 l 1,14,-1
 435 933 l 1,15,-1
 290 772 l 1,0,-1
EndSplineSet
Validated: 1
EndChar

StartChar: u10CE8
Encoding: 108 68840 103
Width: 1131
Flags: W
LayerCount: 2
Fore
SplineSet
727 308 m 1,0,-1
 579 493 l 1,1,-1
 181 0 l 1,2,-1
 9 0 l 1,3,-1
 473 586 l 1,4,-1
 46 1127 l 1,5,-1
 218 1127 l 1,6,-1
 352 962 l 1,7,-1
 484 1130 l 1,8,-1
 656 1130 l 1,9,-1
 438 857 l 1,10,-1
 571 685 l 1,11,-1
 914 1127 l 1,12,-1
 1085 1127 l 1,13,-1
 670 591 l 1,14,-1
 1122 0 l 1,15,-1
 950 0 l 1,16,-1
 808 185 l 1,17,-1
 661 2 l 1,18,-1
 489 2 l 1,19,-1
 727 308 l 1,0,-1
EndSplineSet
Validated: 1
EndChar

StartChar: u10CE9
Encoding: 109 68841 104
Width: 1167
Flags: W
LayerCount: 2
Fore
SplineSet
877 138 m 1,0,-1
 588 493 l 1,1,-1
 199 0 l 1,2,-1
 9 0 l 1,3,-1
 491 586 l 1,4,-1
 46 1127 l 1,5,-1
 236 1127 l 1,6,-1
 589 685 l 1,7,-1
 824 988 l 1,8,-1
 583 934 l 1,9,-1
 580 1055 l 1,10,-1
 932 1127 l 1,11,-1
 1121 1127 l 1,12,-1
 688 591 l 1,13,-1
 1158 0 l 1,14,-1
 968 0 l 1,15,-1
 606 73 l 1,16,-1
 607 197 l 1,17,-1
 877 138 l 1,0,-1
EndSplineSet
Validated: 1
EndChar

StartChar: u10CEA
Encoding: 110 68842 105
Width: 1342
Flags: W
LayerCount: 2
Fore
SplineSet
306 166 m 1,0,-1
 666 446 l 1,1,-1
 1032 163 l 1,2,-1
 1028 963 l 1,3,-1
 669 672 l 1,4,-1
 306 966 l 1,5,-1
 306 166 l 1,0,-1
135 2 m 1,6,-1
 135 1129 l 1,7,-1
 308 1129 l 1,8,-1
 669 835 l 1,9,-1
 1035 1127 l 1,10,-1
 1208 1129 l 1,11,-1
 1208 2 l 1,12,-1
 1035 -1 l 1,13,-1
 669 299 l 1,14,-1
 308 2 l 1,15,-1
 135 2 l 1,6,-1
EndSplineSet
Validated: 1
EndChar

StartChar: u10CEB
Encoding: 111 68843 106
Width: 1418
Flags: W
LayerCount: 2
Fore
SplineSet
302 932 m 1,0,-1
 307 179 l 1,1,-1
 610 559 l 1,2,-1
 302 932 l 1,0,-1
777 559 m 1,3,-1
 1106 187 l 1,4,-1
 1106 935 l 1,5,-1
 777 559 l 1,3,-1
135 0 m 1,6,-1
 135 1127 l 1,7,-1
 308 1127 l 1,8,-1
 689 646 l 1,9,-1
 1111 1130 l 1,10,-1
 1283 1131 l 1,11,-1
 1283 0 l 1,12,-1
 1111 0 l 1,13,-1
 689 478 l 1,14,-1
 309 0 l 1,15,-1
 135 0 l 1,6,-1
EndSplineSet
Validated: 1
EndChar

StartChar: u10CEC
Encoding: 112 68844 107
Width: 1492
Flags: W
LayerCount: 2
Fore
SplineSet
1046 932 m 1,0,-1
 1242 1106 l 1,1,-1
 1344 1008 l 1,2,-1
 1127 822 l 1,3,4
 1214 674 1214 674 1214 555 c 0,5,6
 1214 422 1214 422 1157 322 c 1,7,-1
 1357 117 l 1,8,-1
 1238 6 l 1,9,-1
 1060 205 l 1,10,11
 974 100 974 100 860 6 c 1,12,-1
 617 5 l 1,13,14
 622 10 622 10 626 10 c 2,15,-1
 610 10 l 1,16,17
 494 106 494 106 417 198 c 1,18,-1
 247 7 l 1,19,-1
 145 112 l 1,20,-1
 345 314 l 1,21,22
 342 320 342 320 328.5 343.5 c 128,-1,23
 315 367 315 367 310.5 376.5 c 128,-1,24
 306 386 306 386 295.5 407 c 128,-1,25
 285 428 285 428 280.5 442 c 128,-1,26
 276 456 276 456 270 476 c 128,-1,27
 264 496 264 496 261.5 515.5 c 128,-1,28
 259 535 259 535 259 556 c 0,29,30
 259 601 259 601 274.5 652.5 c 128,-1,31
 290 704 290 704 301.5 727.5 c 128,-1,32
 313 751 313 751 342 805 c 1,33,-1
 135 1022 l 1,34,-1
 247 1110 l 1,35,-1
 414 932 l 1,36,37
 472 1008 472 1008 623 1132 c 1,38,-1
 850 1132 l 1,39,40
 845 1127 845 1127 843 1127 c 2,41,-1
 846 1127 l 1,42,43
 964 1030 964 1030 1046 932 c 1,0,-1
738 150 m 1,44,45
 892 268 892 268 967 360.5 c 128,-1,46
 1042 453 1042 453 1042 554 c 0,47,48
 1042 657 1042 657 963 759 c 128,-1,49
 884 861 884 861 731 982 c 1,50,51
 583 865 583 865 507 763 c 128,-1,52
 431 661 431 661 431 559 c 0,53,54
 431 456 431 456 506.5 362 c 128,-1,55
 582 268 582 268 738 150 c 1,44,45
EndSplineSet
Validated: 1
EndChar

StartChar: u10CED
Encoding: 113 68845 108
Width: 997
Flags: W
LayerCount: 2
Fore
SplineSet
862 6 m 1,0,-1
 689 6 l 1,1,-1
 687 571 l 1,2,-1
 135 341 l 1,3,-1
 135 1127 l 1,4,-1
 308 1127 l 1,5,-1
 308 550 l 1,6,-1
 862 778 l 1,7,-1
 862 6 l 1,0,-1
EndSplineSet
Validated: 1
EndChar

StartChar: u10CEE
Encoding: 114 68846 109
Width: 1299
Flags: W
LayerCount: 2
Fore
SplineSet
307 1127 m 1,0,-1
 630 821 l 1,1,-1
 993 1122 l 1,2,-1
 1165 1127 l 1,3,-1
 1165 0 l 1,4,-1
 993 0 l 1,5,-1
 993 951 l 1,6,-1
 634 660 l 1,7,-1
 307 956 l 1,8,-1
 307 0 l 1,9,-1
 135 0 l 1,10,-1
 135 1127 l 1,11,-1
 307 1127 l 1,0,-1
EndSplineSet
Validated: 1
EndChar

StartChar: u10CEF
Encoding: 115 68847 110
Width: 1299
Flags: W
LayerCount: 2
Fore
SplineSet
993 820 m 1,0,-1
 993 962 l 1,1,-1
 307 614 l 1,2,-1
 307 473 l 1,3,-1
 993 820 l 1,0,-1
993 690 m 1,4,-1
 307 345 l 1,5,-1
 307 162 l 1,6,-1
 993 506 l 1,7,-1
 993 690 l 1,4,-1
993 1127 m 1,8,-1
 1165 1127 l 1,9,-1
 1165 0 l 1,10,-1
 993 0 l 1,11,-1
 993 378 l 1,12,-1
 307 34 l 1,13,-1
 307 0 l 1,14,-1
 135 0 l 1,15,-1
 135 1127 l 1,16,-1
 307 1127 l 1,17,-1
 307 750 l 1,18,-1
 990 1091 l 1,19,-1
 993 1127 l 1,8,-1
EndSplineSet
Validated: 1
EndChar

StartChar: u10CF0
Encoding: 116 68848 111
Width: 1292
Flags: W
LayerCount: 2
Fore
SplineSet
732 1127 m 1,0,-1
 733 834 l 1,1,-1
 1004 1123 l 1,2,-1
 1157 1124 l 1,3,-1
 732 676 l 1,4,-1
 732 0 l 1,5,-1
 560 0 l 1,6,-1
 560 682 l 1,7,-1
 135 1124 l 1,8,-1
 289 1123 l 1,9,-1
 560 834 l 1,10,-1
 560 1127 l 1,11,-1
 732 1127 l 1,0,-1
EndSplineSet
Validated: 1
EndChar

StartChar: u10CF1
Encoding: 117 68849 112
Width: 1598
Flags: W
LayerCount: 2
Fore
SplineSet
716 1 m 1,0,-1
 435 277 l 1,1,-1
 290 156 l 1,2,-1
 135 156 l 1,3,-1
 434 432 l 1,4,-1
 718 146 l 1,5,-1
 716 385 l 1,6,-1
 435 621 l 1,7,-1
 290 500 l 1,8,-1
 135 500 l 1,9,-1
 434 776 l 1,10,-1
 718 530 l 1,11,-1
 716 737 l 1,12,-1
 435 977 l 1,13,-1
 290 848 l 1,14,-1
 135 848 l 1,15,-1
 434 1124 l 1,16,-1
 718 878 l 1,17,-1
 717 1128 l 1,18,-1
 889 1128 l 1,19,-1
 886 878 l 1,20,-1
 1173 1124 l 1,21,-1
 1463 845 l 1,22,-1
 1309 845 l 1,23,-1
 1172 985 l 1,24,-1
 888 737 l 1,25,-1
 881 530 l 1,26,-1
 1173 776 l 1,27,-1
 1463 497 l 1,28,-1
 1309 497 l 1,29,-1
 1172 629 l 1,30,-1
 879 385 l 1,31,-1
 881 146 l 1,32,-1
 1173 432 l 1,33,-1
 1463 153 l 1,34,-1
 1309 153 l 1,35,-1
 1172 285 l 1,36,-1
 888 1 l 1,37,-1
 716 1 l 1,0,-1
EndSplineSet
Validated: 1
EndChar

StartChar: u10CF2
Encoding: 118 68850 113
Width: 1346
Flags: W
LayerCount: 2
Fore
SplineSet
753 162 m 1,0,1
 856 253 856 253 948 377 c 128,-1,2
 1040 501 1040 501 1040 561 c 0,3,4
 1040 636 1040 636 953.5 761.5 c 128,-1,5
 867 887 867 887 752 975 c 1,6,-1
 753 162 l 1,0,1
586 166 m 1,7,-1
 589 975 l 1,8,9
 479 886 479 886 392.5 759.5 c 128,-1,10
 306 633 306 633 306 563 c 0,11,12
 306 506 306 506 397.5 380.5 c 128,-1,13
 489 255 489 255 586 166 c 1,7,-1
601 4 m 1,14,15
 358 158 358 158 246.5 290.5 c 128,-1,16
 135 423 135 423 135 571 c 0,17,18
 135 717 135 717 242.5 848.5 c 128,-1,19
 350 980 350 980 584 1131 c 1,20,-1
 750 1131 l 1,21,22
 992 979 992 979 1101.5 845 c 128,-1,23
 1211 711 1211 711 1211 562 c 0,24,25
 1211 414 1211 414 1102.5 283.5 c 128,-1,26
 994 153 994 153 752 4 c 1,27,-1
 601 4 l 1,14,15
EndSplineSet
Validated: 1
EndChar

StartChar: u10CFA
Encoding: 119 68858 114
Width: 491
Flags: W
LayerCount: 2
Fore
SplineSet
150 0 m 1,0,-1
 150 1409 l 1,1,-1
 341 1409 l 1,2,-1
 341 0 l 1,3,-1
 150 0 l 1,0,-1
EndSplineSet
Validated: 1
EndChar

StartChar: u10CFB
Encoding: 120 68859 115
Width: 1388
Flags: W
LayerCount: 2
Fore
SplineSet
793 0 m 1,0,-1
 595 0 l 1,1,-1
 20 1409 l 1,2,-1
 221 1409 l 1,3,-1
 611 417 l 1,4,-1
 695 168 l 1,5,-1
 779 417 l 1,6,-1
 1167 1409 l 1,7,-1
 1368 1409 l 1,8,-1
 793 0 l 1,0,-1
EndSplineSet
Validated: 1
EndChar

StartChar: u10CFC
Encoding: 121 68860 116
Width: 1577
Flags: W
LayerCount: 2
Fore
SplineSet
1216 0 m 1,0,-1
 793 616 l 1,1,-1
 361 0 l 1,2,-1
 150 0 l 1,3,-1
 686 732 l 1,4,-1
 191 1409 l 1,5,-1
 402 1409 l 1,6,-1
 794 856 l 1,7,-1
 1175 1409 l 1,8,-1
 1386 1409 l 1,9,-1
 904 739 l 1,10,-1
 1427 0 l 1,11,-1
 1216 0 l 1,0,-1
EndSplineSet
Validated: 1
EndChar

StartChar: u10CFD
Encoding: 122 68861 117
Width: 1388
Flags: W
LayerCount: 2
Fore
SplineSet
791 420 m 1,0,-1
 1167 1409 l 1,1,-1
 1368 1409 l 1,2,-1
 793 0 l 1,3,-1
 595 0 l 1,4,-1
 20 1409 l 1,5,-1
 221 1409 l 1,6,-1
 606 423 l 1,7,-1
 600 1409 l 1,8,-1
 791 1409 l 1,9,-1
 791 420 l 1,0,-1
EndSplineSet
Validated: 1
EndChar

StartChar: u10CFE
Encoding: 123 68862 118
Width: 1577
Flags: W
LayerCount: 2
Fore
SplineSet
890 471 m 1,0,-1
 889 0 l 1,1,-1
 698 0 l 1,2,-1
 696 471 l 1,3,-1
 361 0 l 1,4,-1
 150 0 l 1,5,-1
 686 732 l 1,6,-1
 191 1409 l 1,7,-1
 402 1409 l 1,8,-1
 697 993 l 1,9,-1
 698 1409 l 1,10,-1
 889 1409 l 1,11,-1
 891 993 l 1,12,-1
 1175 1409 l 1,13,-1
 1386 1409 l 1,14,-1
 904 739 l 1,15,-1
 1427 0 l 1,16,-1
 1216 0 l 1,17,-1
 890 471 l 1,0,-1
EndSplineSet
Validated: 1
EndChar

StartChar: u10CFF
Encoding: 124 68863 119
Width: 1577
Flags: W
LayerCount: 2
Fore
SplineSet
948 661 m 1,0,-1
 1427 0 l 1,1,-1
 1216 0 l 1,2,-1
 890 471 l 1,3,-1
 889 0 l 1,4,-1
 698 0 l 1,5,-1
 696 471 l 1,6,-1
 361 0 l 1,7,-1
 150 0 l 1,8,-1
 631 651 l 1,9,-1
 196 645 l 1,10,-1
 198 807 l 1,11,-1
 631 807 l 1,12,-1
 191 1409 l 1,13,-1
 402 1409 l 1,14,-1
 697 993 l 1,15,-1
 698 1409 l 1,16,-1
 889 1409 l 1,17,-1
 891 993 l 1,18,-1
 1175 1409 l 1,19,-1
 1386 1409 l 1,20,-1
 954 823 l 1,21,-1
 1381 825 l 1,22,-1
 1381 663 l 1,23,-1
 948 661 l 1,0,-1
EndSplineSet
Validated: 1
EndChar

StartChar: exclamdbl
Encoding: 12 8252 120
Width: 595
Flags: W
LayerCount: 2
Fore
SplineSet
372 395 m 1,0,-1
 372 1409 l 1,1,-1
 563 1409 l 1,2,-1
 563 393 l 1,3,-1
 372 395 l 1,0,-1
563 185 m 1,4,-1
 563 0 l 1,5,-1
 372 0 l 1,6,-1
 372 183 l 1,7,-1
 563 185 l 1,4,-1
32 395 m 1,8,-1
 32 1409 l 1,9,-1
 223 1409 l 1,10,-1
 223 393 l 1,11,-1
 32 395 l 1,8,-1
223 185 m 1,12,-1
 223 0 l 1,13,-1
 32 0 l 1,14,-1
 32 183 l 1,15,-1
 223 185 l 1,12,-1
EndSplineSet
Validated: 1
EndChar

StartChar: ellipsis
Encoding: 11 8230 121
Width: 825
Flags: W
LayerCount: 2
Fore
SplineSet
793 185 m 1,0,-1
 793 0 l 1,1,-1
 602 0 l 1,2,-1
 602 183 l 1,3,-1
 793 185 l 1,0,-1
513 185 m 1,4,-1
 513 0 l 1,5,-1
 322 0 l 1,6,-1
 322 183 l 1,7,-1
 513 185 l 1,4,-1
223 185 m 1,8,-1
 223 0 l 1,9,-1
 32 0 l 1,10,-1
 32 183 l 1,11,-1
 223 185 l 1,8,-1
EndSplineSet
Validated: 1
EndChar

StartChar: uni10C93_10CA5
Encoding: 126 -1 122
Width: 1441
Flags: W
LayerCount: 2
Fore
SplineSet
341 582 m 1,0,-1
 341 0 l 1,1,-1
 150 0 l 1,2,-1
 150 1409 l 1,3,-1
 341 1409 l 1,4,-1
 341 869 l 1,5,-1
 667 1413 l 1,6,-1
 858 1414 l 1,7,-1
 1291 718 l 1,8,-1
 864 5 l 1,9,-1
 673 4 l 1,10,-1
 341 582 l 1,0,-1
767 152 m 1,11,-1
 1100 718 l 1,12,-1
 767 1258 l 1,13,-1
 442 712 l 1,14,-1
 767 152 l 1,11,-1
EndSplineSet
Validated: 1
Ligature2: "'liga'-1" u10C93 uni200D u10CA5
EndChar

StartChar: uni10CAE_10CAE
Encoding: 127 -1 127
Width: 1444
Flags: W
LayerCount: 2
Fore
SplineSet
1103 804 m 1,0,-1
 704 445 l 1,1,-1
 341 809 l 1,2,-1
 341 0 l 1,3,-1
 150 0 l 1,4,-1
 150 1409 l 1,5,-1
 341 1409 l 1,6,-1
 700 1026 l 1,7,-1
 1103 1403 l 1,8,-1
 1294 1409 l 1,9,-1
 1294 0 l 1,10,-1
 1103 0 l 1,11,-1
 1103 804 l 1,0,-1
1103 999 m 9,12,-1
 1103 1189 l 17,13,-1
 704 825 l 1,14,-1
 341 1195 l 1,15,-1
 341 1005 l 1,16,-1
 704 635 l 1,17,-1
 1103 999 l 9,12,-1
EndSplineSet
Validated: 1
LCarets2: 2 0 0
Ligature2: "'liga'-1" u10CAE uni200D u10CAE
EndChar

StartChar: uni10CAE_10C93
Encoding: 128 -1 128
Width: 1444
Flags: W
LayerCount: 2
Fore
SplineSet
341 838 m 1,0,-1
 704 508 l 1,1,-1
 1103 832 l 1,2,-1
 700 1179 l 1,3,-1
 341 838 l 1,0,-1
1294 912 m 17,4,-1
 1294 0 l 1,5,-1
 1103 0 l 1,6,-1
 1103 642 l 1,7,-1
 704 298 l 1,8,-1
 341 648 l 1,9,-1
 341 0 l 1,10,-1
 150 0 l 1,11,-1
 150 912 l 9,12,-1
 700 1409 l 25,13,-1
 1294 912 l 17,4,-1
EndSplineSet
Validated: 1
LCarets2: 2 0 0
Ligature2: "'liga'-1" u10CAE uni200D u10CAE
EndChar

StartChar: uni10C92_10C90
Encoding: 129 -1 129
Width: 1182
Flags: W
LayerCount: 2
Fore
SplineSet
608 1049 m 1,0,-1
 608 1236 l 1,1,-1
 150 883 l 1,2,-1
 150 1050 l 1,3,-1
 608 1409 l 1,4,-1
 803 1411 l 1,5,-1
 802.51171875 1139 l 1,6,-1
 1032 1280 l 1,7,-1
 1032 1123 l 1,8,-1
 801.09375 979 l 1,9,-1
 799 1 l 1,10,-1
 608 1 l 1,11,-1
 608 884 l 1,12,-1
 190 603 l 1,13,-1
 190 760 l 1,14,-1
 608 1049 l 1,0,-1
EndSplineSet
Validated: 524289
LCarets2: 2 0 0
Ligature2: "'liga'-1" u10C92 uni200D u10C90
EndChar

StartChar: uni10C87_10CAF
Encoding: 130 -1 130
Width: 1734
Flags: W
LayerCount: 2
Fore
SplineSet
1103 1025 m 1,0,-1
 1103 1203 l 1,1,-1
 341 767 l 1,2,-1
 341 591 l 1,3,-1
 1103 1025 l 1,0,-1
1103 593 m 9,4,-1
 1109 649 l 25,5,-1
 819 509 l 25,6,-1
 819 659 l 25,7,-1
 1104 798 l 25,8,-1
 1103 863 l 17,9,-1
 341 431 l 1,10,-1
 341 163 l 1,11,-1
 1103 593 l 9,4,-1
1294 684 m 17,12,-1
 1294 0 l 1,13,-1
 1103 0 l 1,14,-1
 1103 433 l 1,15,-1
 341 3 l 1,16,-1
 341 0 l 1,17,-1
 150 0 l 1,18,-1
 150 1409 l 1,19,-1
 341 1409 l 1,20,-1
 341 937 l 1,21,-1
 1100 1364 l 1,22,-1
 1103 1409 l 1,23,-1
 1294 1409 l 1,24,-1
 1296 833 l 9,25,-1
 1579 930 l 25,26,-1
 1584 783 l 1,27,-1
 1294 684 l 17,12,-1
EndSplineSet
Validated: 1
Ligature2: "'liga'-1" u10C87 uni200D u10CAF
EndChar

StartChar: uni10C87_10CB0
Encoding: 131 -1 131
Width: 1436
Flags: W
LayerCount: 2
Fore
SplineSet
813 1409 m 1,0,-1
 814 1043 l 1,1,-1
 1115 1404 l 1,2,-1
 1286 1405 l 1,3,-1
 813 845 l 1,4,-1
 813 817 l 1,5,-1
 1223 817 l 1,6,-1
 1226 647.099609375 l 1,7,-1
 803 649 l 1,8,-1
 813 0 l 1,9,-1
 622 0 l 1,10,-1
 622 649 l 1,11,-1
 216.565429688 644 l 1,12,-1
 212 809 l 1,13,-1
 622 809 l 1,14,-1
 622 852 l 1,15,-1
 150 1405 l 1,16,-1
 321 1404 l 1,17,-1
 622 1043 l 1,18,-1
 622 1409 l 1,19,-1
 813 1409 l 1,0,-1
EndSplineSet
Validated: 1
EndChar

StartChar: uni10CD3_10CE5
Encoding: 132 -1 132
Width: 1441
VWidth: 1779
Flags: W
LayerCount: 2
Fore
SplineSet
341 463 m 1,0,-1
 341 -2 l 1,1,-1
 150 -2 l 1,2,-1
 150 1124 l 1,3,-1
 341 1124 l 1,4,-1
 341 693 l 1,5,-1
 667 1128 l 1,6,-1
 858 1128 l 1,7,-1
 1291 572 l 1,8,-1
 864 2 l 1,9,-1
 673 1 l 1,10,-1
 341 463 l 1,0,-1
767 119 m 1,11,-1
 1100 572 l 1,12,-1
 767 1004 l 1,13,-1
 442 567 l 1,14,-1
 767 119 l 1,11,-1
EndSplineSet
Validated: 1
Ligature2: "'liga'-1" u10CD3 uni200D u10CE5
EndChar

StartChar: uni10CEE_10CEE
Encoding: 133 -1 133
Width: 1444
VWidth: 1779
Flags: W
LayerCount: 2
Fore
SplineSet
1103 643 m 1,0,-1
 704 356 l 1,1,-1
 341 647 l 1,2,-1
 341 0 l 1,3,-1
 150 0 l 1,4,-1
 150 1127 l 1,5,-1
 341 1127 l 1,6,-1
 700 821 l 1,7,-1
 1103 1122 l 1,8,-1
 1294 1127 l 1,9,-1
 1294 0 l 1,10,-1
 1103 0 l 1,11,-1
 1103 643 l 1,0,-1
1103 799 m 9,12,-1
 1103 951 l 17,13,-1
 704 660 l 1,14,-1
 341 956 l 1,15,-1
 341 804 l 1,16,-1
 704 508 l 1,17,-1
 1103 799 l 9,12,-1
EndSplineSet
Validated: 1
Ligature2: "'liga'-1" u10CEE uni200D u10CEE
EndChar

StartChar: uni10CD3_10CEE
Encoding: 134 -1 134
Width: 1294
VWidth: 1779
Flags: W
LayerCount: 2
Fore
SplineSet
341 671 m 1,0,-1
 634 407 l 1,1,-1
 953 666 l 1,2,-1
 630 944 l 1,3,-1
 341 671 l 1,0,-1
1144 730 m 17,4,-1
 1144 1 l 1,5,-1
 953 1 l 1,6,-1
 953 515 l 1,7,-1
 634 239 l 1,8,-1
 341 519 l 1,9,-1
 341 1 l 1,10,-1
 150 1 l 1,11,-1
 150 730 l 9,12,-1
 630 1128 l 25,13,-1
 1144 730 l 17,4,-1
EndSplineSet
Validated: 1
Ligature2: "'liga'-1" u10CD3 uni200D u10CEE
EndChar

StartChar: uni10CD2_10CD0
Encoding: 135 -1 135
Width: 1182
VWidth: 1779
Flags: W
LayerCount: 2
Fore
SplineSet
608 839 m 1,0,-1
 608 989 l 1,1,-1
 150 707 l 1,2,-1
 150 840 l 1,3,-1
 608 1127 l 1,4,-1
 803 1129 l 1,5,-1
 803 911 l 1,6,-1
 1032 1024 l 1,7,-1
 1032 899 l 1,8,-1
 801 783 l 1,9,-1
 799 1 l 1,10,-1
 608 1 l 1,11,-1
 608 707 l 1,12,-1
 190 483 l 1,13,-1
 190 608 l 1,14,-1
 608 839 l 1,0,-1
EndSplineSet
Ligature2: "'liga'-1" u10CD2 uni200D u10CD0
EndChar

StartChar: uni10CC7_10CEF
Encoding: 136 -1 136
Width: 1734
VWidth: 1779
Flags: W
LayerCount: 2
Fore
SplineSet
1103 821 m 1,0,-1
 1103 963 l 1,1,-1
 341 614 l 1,2,-1
 341 474 l 1,3,-1
 1103 821 l 1,0,-1
1103 475 m 9,4,-1
 1109 520 l 25,5,-1
 819 408 l 25,6,-1
 819 528 l 25,7,-1
 1104 639 l 25,8,-1
 1103 691 l 17,9,-1
 341 346 l 1,10,-1
 341 131 l 1,11,-1
 1103 475 l 9,4,-1
1294 548 m 17,12,-1
 1294 1 l 1,13,-1
 1103 1 l 1,14,-1
 1103 347 l 1,15,-1
 341 3 l 1,16,-1
 341 1 l 1,17,-1
 150 1 l 1,18,-1
 150 1128 l 1,19,-1
 341 1128 l 1,20,-1
 341 750 l 1,21,-1
 1100 1092 l 1,22,-1
 1103 1128 l 1,23,-1
 1294 1128 l 1,24,-1
 1296 667 l 9,25,-1
 1579 745 l 25,26,-1
 1584 627 l 1,27,-1
 1294 548 l 17,12,-1
EndSplineSet
Validated: 1
Ligature2: "'liga'-1" u10CC7 uni200D u10CEF
EndChar

StartChar: uni10CC7_10CF0
Encoding: 137 -1 137
Width: 1436
VWidth: 1779
Flags: W
LayerCount: 2
Fore
SplineSet
813 1128 m 1,0,-1
 814 835 l 1,1,-1
 1115 1124 l 1,2,-1
 1286 1125 l 1,3,-1
 813 677 l 1,4,-1
 813 654 l 1,5,-1
 1223 654 l 1,6,-1
 1226 519 l 1,7,-1
 803 520 l 1,8,-1
 813 1 l 1,9,-1
 622 1 l 1,10,-1
 622 520 l 1,11,-1
 217 516 l 1,12,-1
 212 648 l 1,13,-1
 622 648 l 1,14,-1
 622 682 l 1,15,-1
 150 1125 l 1,16,-1
 321 1124 l 1,17,-1
 622 835 l 1,18,-1
 622 1128 l 1,19,-1
 813 1128 l 1,0,-1
EndSplineSet
Validated: 1
Ligature2: "'liga'-1" u10CC7 uni200D u10CF0
EndChar
